<svg width="155" height="16" viewBox="0 0 155 16" fill="none" xmlns="http://www.w3.org/2000/svg">
<path d="M0.46 0.879999H7.44L12.56 10.14L17.7 0.879999H24.6V15H20.4V4.32L14.22 15H10.76L4.6 4.26V15H0.46V0.879999ZM34.36 0.879999H39.98L47.94 15H43.04L41.72 12.48H32.62L31.28 15H26.52L34.36 0.879999ZM37.22 4L34.2 9.5H40.14L37.22 4ZM50.0503 0.879999H56.9703C58.5103 2.76 60.0503 4.62 61.5503 6.52C62.9103 8.24 64.2503 10 65.5903 11.76L65.5103 5.28V0.879999H69.5903V15H62.6503C60.9903 12.98 59.3303 10.96 57.7103 8.88C56.5103 7.34 55.3303 5.76 54.1703 4.2V15H50.0503V0.879999ZM73 0.879999H77.48V15H73V0.879999ZM80.9297 0.879999H96.2497V4.12H85.2897V6.92H95.6697V10.14H85.2897V15H80.9297V0.879999ZM98.8194 0.879999H114.599V4H103.119V6.36H113.979V9.32H103.119V11.8H114.599V15H98.8194V0.879999ZM117.6 10.36L122.02 10.38C122.02 10.7 122.02 10.96 122.12 11.2C122.28 11.66 122.7 11.84 123.62 11.92C124.52 11.96 125.4 12 126.3 12.02C127.26 12.04 128.22 12 129.2 11.98C129.34 11.98 129.96 12.04 130.4 11.86C130.84 11.7 131.22 11.26 131.22 10.78C131.22 10.66 131.2 10.42 131.02 10.16C130.68 9.68 130.24 9.7 129.24 9.56C127.16 9.52 125.08 9.5 123.02 9.38C122.36 9.34 121.7 9.28 121.04 9.24C120.84 9.2 120.62 9.18 120.42 9.14C120.14 9.1 119.16 8.94 118.48 8.2C118.04 7.72 117.64 6.86 117.64 5.42C117.64 5.32 117.64 3.78 118 2.88C118.14 2.54 118.34 2.24 118.58 1.98C119.4 1.1 120.48 0.96 121.66 0.819999C123.2 0.76 124.74 0.699999 126.28 0.699999C127.98 0.699999 129.68 0.799999 131.38 0.879999L132.16 0.999999C132.46 1.04 133.44 1.22 134.2 1.92C135.18 2.82 135.18 4.08 135.14 5.32L130.86 5.3C130.6 4.22 130.4 4.08 129.26 3.96C128.22 3.9 127.16 3.86 126.12 3.86C125.3 3.86 124.5 3.9 123.68 3.92C123.14 3.94 122.64 3.96 122.3 4.4C122.24 4.48 122.06 4.74 122.06 5.04C122.06 5.34 122.22 5.58 122.3 5.66C122.68 6.14 123.16 6.16 123.7 6.2L132.18 6.5C133.34 6.62 133.78 6.78 134.28 7.14C135 7.66 135.64 8.58 135.64 10.64C135.64 12.24 135.36 13 134.92 13.62C134.74 13.86 134.58 14.04 134.34 14.22C133.68 14.7 132.82 14.84 131.94 14.98C130.2 15.08 128.48 15.16 126.74 15.16C124.86 15.16 122.98 15.04 121.08 14.94C120.14 14.8 119.08 14.62 118.38 13.86C117.58 13 117.6 11.42 117.6 10.36ZM137.839 0.879999H154.879V4.14H148.519V15H144.079V4.16H137.839V0.879999Z" fill="white"/>
</svg>
