<?xml version="1.0" encoding="UTF-8"?>
<svg xmlns="http://www.w3.org/2000/svg" viewBox="0 0 1000 1000">
  <defs>
    <style>
      .cls-1 {
        font-family: EurostileBQ-BoldExtended, 'Eurostile BQ';
        font-size: 79.78px;
        letter-spacing: .21em;
      }

      .cls-1, .cls-2 {
        font-weight: 700;
      }

      .cls-2 {
        font-family: Helvetica-Bold, Helvetica;
        font-size: 42.67px;
      }
    </style>
  </defs>
  <g id="_2" data-name="2">
    <text class="cls-2" transform="translate(889.75 492.54)"><tspan x="0" y="0">®</tspan></text>
  </g>
  <g id="_3" data-name="3">
    <g id="_3-2" data-name="3">
      <g>
        <path d="m842.15,525.88c.79.4,1.48.75,1.82.93.69,1.73,1.26,3.14,1.84,4.6,1.47-.37,2.55-.64,3.93-.99,1.25,3.47,2.41,6.68,3.72,10.32,1.89.7,2.53,3.21,3.97,5.03.49.61.72,1.42,1.16,2.08.94,1.39.96,2.72.08,4.17-.66,1.08-1.13,2.27-1.61,3.25,1.19.95,2.77,1.58,3.17,2.65.84,2.28,1.24,4.77,1.44,7.21.07.88-.7,2.21-1.48,2.72-2.04,1.31-2.68,3.03-2.42,5.3.04.37-.15.76-.27,1.32-.71-.21-1.33-.39-2.4-.71.23.91.21,1.74.6,2.25.85,1.09,1.82,2.13,2.89,3,1.97,1.6,2.35,3.63,1.72,5.89-.41,1.48-1.08,2.89-1.75,4.64-1.15-.94-1.96-1.6-2.88-2.35-.61,1.02-.99,2.03-1.69,2.74-.66.66-1.65,1-2.49,1.49.72.86,1.32,1.84,2.16,2.49.72.56,1.71.82,2.61,1.07.65.18,1.43-.02,2.05.22,1.97.76,2.3,2.68.79,4.2-.42.42-.88.79-1.34,1.2.42.91.81,1.76,1.28,2.78-1.02.62-1.91,1.16-3,1.81,1.87,2.95,1.58,6.04,1.18,9.22-.15,1.17.43,2.43.76,4.04-1.15.84-2.67,1.95-4.19,3.06.2.25.41.49.61.74h1.41c.12,2.03,0,3.87-.7,5.95-.96,2.87-2.34,5.4-3.78,7.99-1.59,2.84-3.8,4.5-7,4.93-.57.08-1.12.34-2.03.63.8.56,1.37.96,2.15,1.52-2.41,2.28.11,4.63.16,7.35-5.86-.07-11.33.98-17.18,2.06-.92-.42-2.26-1.02-3.73-1.69-.78.62-1.54,1.21-2.45,1.94-.69-.32-1.47-.68-2.33-1.08-.34.17-.75.26-1.03.52-1.57,1.44-3.59,1.34-5.02.45-2.21-1.38-4.38-.84-6.72-.92-.42.81-.82,1.58-1.27,2.44-2.98-.14-6.01.8-8.36-1-2.01.36-3.72.66-5.42.99-.48.09-1.02.16-1.41.42-1.22.8-2.28.78-3.58.03-.73-.42-2.05-.55-2.76-.17-2.17,1.15-3.8.89-4.94-1.21-2.78.52-5.06-.54-7.45-1.48-2.5,1.64-5.28.81-8.03.82-.46-.88-.86-1.65-1.25-2.4h-4.3c-.03.17-.07.35-.1.52,1.01.33,2.03.66,3.22,1.04-.26.52-.35,1.06-.59,1.15-3.05,1.13-5.9,3.24-9.46,1.86-1.65-.64-3.35-1.13-5.12-1.71-.8.33-1.8.57-2.59,1.11-2.47,1.66-4.45,1.03-6.25-1.04-.25-.29-.64-.46-1.05-.74-.89.37-1.8.74-3.19,1.3-.44-.67-.97-1.49-1.55-2.38-1.29.7-2.42,1.69-3.63.39-.13-.14-.42-.34-.48-.29-3.22,2.28-6.08-2.14-9.15-.03-.72-1.08-1.2-1.8-1.78-2.66-1.32.82-2.61.97-4.03-.08-.63-.47-1.7-.44-2.57-.44-1.71,0-2.92-.73-3.41-2.34-.72-2.39-2.27-3.34-4.69-3.11-2.77.26-5.09-1.3-7.6-2.03-4.13-1.19-7.53-3.7-10.74-6.56-1.33-1.18-3.38-1.53-5.07-2.34-.65-.32-1.48-.75-1.73-1.34-1.41-3.36-4.2-4.45-7.46-5.09-1.3-.25-2.53-1.04-3.7-1.75-.31-.19-.25-.98-.41-1.72.84.16,1.39.27,1.91.37,1.78-1.4,2.06-4.11.61-5.75q-1.18-1.34-.87-2.65-2.02-1.52-3.78-.74c-2.33-1.26-3.23-3.59-4.25-5.64.1-3.09,3.24-3.42,4.75-5.35-1.21-1.9-2.57-3.39-4.97-3.93.31-.62.56-1.12.87-1.76-.58-.7-1.2-1.44-1.98-2.37.69-1.25,1.46-2.64.07-4.13-.61-.65-.34-1.65.6-1.91,1.88-.52,1.78-1.86,1.6-3.49-.9-.67-2.72-.82-2.29-2.89.63-.36,1.35-.77,2.23-1.28-.93-.45-1.7-.69-2.33-1.14-1.42-1.01-1.49-1.8-.98-3.56.3-1.03.22-2.17.33-3.65.18-.12.73-.48,1.23-.81-.03-.3.03-.55-.07-.67-1.74-1.97-3-4.15-3.48-6.79-.11-.58-.61-1.35-1.12-1.56-1.35-.55-2.8-1.11-4.23-1.17-4.07-.17-8.16,0-12.23-.14-1.33-.04-2.63-.61-3.96-.89-1.23-.26-2.48-.43-3.72-.65-1.54-.27-3.07-.57-4.61-.82-1.35-.22-2.71-.46-4.07-.54-1.38-.08-2.74.14-3.99-.82-.55-.42-1.48-.43-2.25-.47-1.29-.08-2.59-.14-3.87-.02-1.91.17-3.8.5-6.29.84-.17-.24-.72-1.01-1.41-1.97-.69,2.31-2.38,2.36-4.4,2.34-2.15-.02-4.31.5-6.46.88-1.67.3-3.28.79-4.84-.48-.44-.36-1.47-.47-1.95-.2-2.33,1.32-4.84,1.13-7.28.92-2.13-.18-3.86.74-5.72,1.36-1.7.57-.79,2.28-1.63,3.63-1.29.21-2.82.45-4.47.71-.15.58-.37,1.12-.42,1.68-.09.99-.5,1.49-1.47,1.94-1.92.89-1.96,2.75-.27,3.85,2,1.29,2.43,2.73.78,4.18-2.18,1.9-2.53,3.85-.75,6.5-1.89.11-3.34.2-5.15.31-.07,1.98-.16,3.93-.18,5.87-.02,1.29.16,2.59-.87,3.65-.25.26-.41.72-.41,1.08-.03,3.76-.02,7.51-.02,11.33,1.85.13,3.57-1.67,5.15.07-.99,3.71-1.28,4.13-4.06,5.33,0,4-.12,8.16.06,12.31.06,1.41.99,2.78.41,4.29,1.42,1.3.58,3.01.76,4.52.07.59-.24,1.23-.38,1.85-.21,0-.43,0-.64,0-.15-1.36-.3-2.71-.45-4.06-3.72-2.05-4.99-2.06-7.45.08,1.64.24,3.15.46,5.06.74-.63,1.63-1.13,2.91-1.64,4.22,1.65,1.18,4.06.46,4.97,2.57-.98,1.53-1.9-.03-2.88-.02-1.27,2.26,1.35,2.04,1.99,3.16-.86.66-1.71,1.31-3.03,2.33,1.74.59,3.09,1.04,4.44,1.5-.53,1.53-.96,2.77-1.56,4.5,1.09-.41,1.59-.59,2.25-.84.95.9,1.96,1.84,3.41,3.21-1.2.28-1.99.69-2.73.6-2.06-.25-3.94.03-5.59,1.47-2.95-2.36-6.09-1.85-9.58-1.21.4,1.21.68,2.09,1.08,3.3-3.59.09-7.03.22-10.48.2-.52,0-1.15-.66-1.54-1.16-.83-1.08-1.54-2.26-2.46-3.65-.72,1.11-1.38,1.98-1.88,2.92-.74,1.39-1.78,1.93-3.38,1.87-3.48-.12-6.97-.21-10.44-.04-2.48.12-3.98-.78-4.74-3.09-.09-.27-.28-.51-.62-1.09-1.26,3.19-3.85,2.66-6.27,2.6-2.09-.05-4.16-.16-6.01,1.16-1.05.75-2.13.25-3.05-.38-1.75-1.19-3.48-1.12-5.36-.26-.85.39-2.05.78-2.8.47-3.75-1.52-7.64-.99-11.49-1.16-1.42-.06-2.83-.44-4.69-.75-3.51,2.11-7.49.38-10.36-2.14-1.11-.97-2.08-1.3-3.41-1.29-3.48.02-6.96,0-10.44-.05-.78-.01-1.82.08-2.28-.35-1.71-1.63-3.64-2.53-5.94-3.04-.94-.21-1.59-.67-2.68-.27-.76.28-1.91-.11-2.74-.51-1.79-.86-3.96-1.35-4.59-3.89-1.83-.32-3.74-.66-5.83-1.03-.66-.9-1.53-2.08-2.4-3.26-.12-.16-.3-.31-.32-.49-.55-3.7-3.18-6.25-5.07-9.21-.78-1.23-.74-2.45.13-3.6.48-.63,1.03-1.2,1.74-2.01-.72-1.2-1.75-2.62-.1-3.99-1.03-1.7.63-3.18.42-4.75-.2-1.52-.82-2.98-1.31-4.65.34-.23.75-.47,1.11-.77.56-.47,1.07-.99,1.61-1.49-.57-.47-1.14-.93-1.71-1.4-.15-.12-.28-.26,0,0-.87-2.91.15-5.52-.96-8.14.33-.55.72-1.21,1.2-2.01-2.14-1.46-2.78-3.48-2.49-5.94.09-.73-.23-1.56-.52-2.28-1.2-3.02-1.2-3.15,1.08-5.43.21-.21.37-.46.66-.84-1.14-1.59-3.1-2.98-2.37-5.32.58-1.87,1.43-3.65,2.21-5.58-.8-2.34-2.65-4.49-2.24-7.4.07-.52-.55-1.18-.96-1.71-1.08-1.4-2.18-2.79-3.33-4.13-1.67-1.96-3.38-3.88-5.14-5.89-1.47.39-2.85,1.54-4.22.12-.13-.14-.83.26-1.26.42-2.17.77-4.27,1-5.93-1.04-.91-1.12-2.07-1.41-3.44-1.32-1.09.07-2.2-.08-3.28.05-.62.07-1.47.36-1.71.81-.22.42.16,1.24.44,1.8.21.41.69.68,1.04,1,.69-.23,1.3-.44,2.26-.76-.17,3.41-3.02,4.34-4.92,6.89-.36-1.77-.58-2.85-.89-4.37-2.35,2.26-4.47,4.29-6.71,6.44-1.72-1.35-4.55-1.12-4.98-4.11-.39-2.72,1.68-3.46,3.49-4.91-2.07-.15-4.14-.33-6.22-.46-2.22-.14-4.45-.43-6.66-.3-2.12.12-4.21.69-6.75,1.13-1.17-.81-2.79-1.07-4.56,0-1.33.81-2.68.38-3.96-.32-1.11-.61-2.14-.29-3.36-.09-2.86.47-5.19,2.91-8.36,2.12-.37-.09-.9.34-1.33.57-.44.23-.82.66-1.27.74-2.97.55-5.96,1.04-9.12,1.58-.33.58-.59,1.38-1.12,1.91-.73.74-1.64,1.77-2.5,1.8-1.77.06-2.47.95-2.96,2.36-.83,2.35-2.79,3.62-4.92,4.31-2,.65-2.75,1.92-2.79,3.69-.03,1.18-.59,1.83-1.36,2.47-2.53,2.13-4.15,4.71-4.18,8.13,0,.53-.34,1.06-.59,1.77-1.05-.35-1.94-.65-2.82-.94-.69,2.42-.71,2.45,1.27,3.64.86.51,1.1,1.08.44,2.09-.89-.3-1.83-.61-3.23-1.07.27,1.05.38,1.66.58,2.25.44,1.25.84,2.58.04,3.73-.84,1.19-.57,2.15.24,3.06q-2.87,2.77-1.34,6.14c-.7.56-1.44,1.14-2.2,1.74.2.87.24,1.8.62,2.56,1.06,2.12.45,4.08-.44,5.98-1.65,3.54-1.64,3.78,1.42,6.1.15.11.26.28.39.43.05.19.15.38.14.57-.2,3.96,1.45,7.39,3.07,10.84.22.47.23,1.05.26,1.59.04.73.01,1.46.01,2.45-1.39.39-2.66,1.09-3.5,2.81-.92,1.88-.62,3.42.11,5.05.68,1.52,1.51,2.96,2.4,4.68-1.22,2.07-2.55,4.21-5.73,3.87-.48-.05-1.13-.1-1.45.16-1.93,1.54-4.16,1.03-6.3,1.03-4.58,0-9.15.02-13.73-.09-1.36-.03-2.8-.24-4.05-.76-2.34-.98-4.76-1.21-6.97-.25-2.42,1.05-4.83.93-7.3.94-1.39,0-2.78-.02-4.18-.04-.5,0-1.09-.18-1.48.03-4.12,2.26-8.57.83-12.84,1.23-1.6.15-3.19.54-5.41.94-.99-.73-2.59-1.08-4.52-.02-.94.52-2.33.2-3.51.29-1.74.14-3.57-.53-5.2.68-.24.18-.92,0-1.26-.23-1.12-.75-2.39-.82-3.37-.16-1.75,1.17-3.61.92-5.48.92-1.78,0-3.53-.19-5.17.92-.65.44-1.72.31-2.6.32-2.09.03-4.18.02-6.27-.06-.77-.03-1.7-.07-2.26-.49-1.55-1.19-2.71-.83-3.85.52-.25.3-.58.54-1.01.94-.82-.04-1.62-.45-2.74-.17-3.01.76-6.22,1.11-9.24-.43-.55-.28-1.34-.34-1.94-.2-1.51.37-2.97.97-4.47,1.38-.51.14-1.1.07-1.63-.02-.68-.11-1.39-.56-2-.45-2.79.52-5.01-.89-7.26-2.09-.98-.52-1.63-.45-2.69-.25-1.4.27-3.05-.09-4.44-.59-2.86-1.03-5.68-2.23-8.42-3.56-1.31-.63-2.41-1.71-3.59-2.6-.78-.59-1.46-1.37-2.32-1.81-2.97-1.55-3.67-3.74-2.04-6.74.09-.17.13-.37.15-.46-1.25-3.21-1.7-6.31.08-9.42.24-.41.45-.95.41-1.4-.26-2.91.94-5.92-.65-8.77-.27-.49-.18-1.41.1-1.93.85-1.58,1.12-3.16.68-4.89-.09-.36-.09-.84.07-1.16,1.05-1.99.6-3.95-.39-5.7-1.04-1.86-.7-3.39.48-4.93.54-.71,1.11-1.39,1.65-2.11.29-.39.77-.82.76-1.22-.06-3.34.64-6.66-.61-10.01-.83-2.24-1.7-4.68-.76-7.23.15-.4.07-1.05-.17-1.39-1.02-1.41-.9-3-.88-4.59.03-2.78.05-5.57.08-8.35.02-1.99.09-3.97-1-5.79-.28-.48-.31-1.14-.35-1.73-.11-1.85,1.43-3.43.26-5.63-.78-1.46-.09-3.69-.1-5.58,0-.89.21-1.99-.22-2.63-1.42-2.1-1.1-4.39-.98-6.62.12-2.26-.22-4.11-2.57-5.07-.34-.14-.6-.48-1.03-.85.47-.56.92-1.05,1.3-1.58,2.47-3.45,2.56-4.46.42-8.21-.54-.95-.84-1.67-.31-2.73.25-.5-.02-1.25-.05-1.89-.03-.57-.18-1.16-.05-1.69.2-.81,1-1.72.8-2.33-.22-.65-1.32-.99-2.17-1.56.68-.83,1.35-1.65,2.21-2.7-2-.64-2.83-1.96-2.21-3.94.43-1.39.72-2.88,1.45-4.1.9-1.48.34-2.62-.32-3.81-.47-.85-1.1-1.47-.43-2.66.31-.56-.45-1.73-.78-2.79.69-.45,1.42-.92,2.29-1.49-1.03-2.97-3.82-1.63-6.12-2.42-.03-1.14-.53-2.67,0-3.57,1.67-2.79,1.26-5.75,1.36-8.7.02-.49.05-.98.08-1.48,1.41-1.18,3.83-.13,4.75-2.54-.74-2.08-1.44-4.42.21-6.76.3-.42-.11-1.35-.22-2.31-.95.43-1.63.53-1.97.92-1.41,1.64-3.11,2.33-5.27,2.08-.47-.05-1.35.37-1.45.73-.44,1.63-1.98,1.83-3.08,2.54-1.38.88-3.38.55-4.37-.53-1.11-1.2-.53-2.36.13-3.53.68-1.21,1.19-2.52,1.93-3.69.63-.99,1.33-2.06,2.26-2.72,1.44-1.01,3.18-1.62,3.64-3.6.04-.16.25-.33.42-.4,3.39-1.47,5.61-4.38,8.31-6.71.74-.63,1.95-.75,2.96-1.01.75-.19,1.89.05,2.26-.4,1.67-2.03,4.29-1.86,6.33-3,.72-.4,1.72-.36,2.59-.39,1.85-.06,3.73.4,5.42-.97.41-.33,1.49-.01,2.17.25.51.2.87.8,1.32,1.18,1.37,1.18,1.77,1.14,2.8-.32.28-.39.47-.84.76-1.36,1.84,0,3.63.07,5.4-.03,1.06-.06,2.19-.21,3.15-.64,1.07-.48,1.99-.95,2.98,0,.96.91,2.26-1.37,3.12.35,2.64.56,5.28,1.14,7.93,1.66,1.14.22,2.05-.22,2.94-1.04,2.22-2.04,2.26-1.99,4.59.14.29.27.59.51.95.81,1.78-1.14,3.22-4,5.4-1.41,2.24-.35,4.14-.76,6.07-.91.83-.07,1.81.19,2.53.62,1.04.62,1.93,1.02,2.96.1.14-.13.47-.29.51-.24,1.6,1.71,3.52-.4,5.21.44.27.13.75-.04,1.09-.17,3.37-1.27,6.48-.87,9.64.92,2.04,1.15,4.37,1.86,6.64,2.55,2.39.73,4.18-.57,5.79-2.38,1.21.77,2.4,1.63,3.77.44.2-.18.74-.06,1.1.05.66.19,1.27.62,1.93.67,1.38.11,2.76.03,4.2.03.47-.89.88-1.65,1.19-2.25,3.49-.51,6.8-1.03,10.12-1.45.53-.07,1.12.31,1.69.46.94.25,1.88.5,2.83.71.67.15,1.51.04,2,.41,1.61,1.23,3.36.91,5.28.79.61-1.87,1.72-3.07,3.91-2.38.09.03.21-.03.3,0,1.18.44,1.75-1.61,3.2-.66.93.61,2.23.66,3.58,1.02-.22.61-.44,1.2-.68,1.88,1.04.25,2.08.51,3.46.85-.78,1.12-1.4,2.02-2.12,3.05,2.01,1.09,3.51.04,5.12-.93.84,1.03,1.62,1.99,2.6,3.19,1.15-.97,2.18-1.85,3.32-2.82,1.96,4.15,5.62,4.17,9.58,3.87.39-.75.78-1.49,1.44-2.77.3,1.17.49,1.78.61,2.4.21,1.05.43,2.09.55,3.15.06.51,0,1.09-.18,1.55-.56,1.38-.86,2.85.42,3.82,1.92,1.46,2.09,2.94.75,4.51.86,1.34,1.57,2.52,2.34,3.66,1.01,1.48,1.55,2.85.34,4.62-.55.8-.34,2.11-.5,3.19-.21,1.44-.8,2.94-.58,4.31.42,2.65-2,5.16-.2,7.83.25.37-.03,1.14-.14,1.7-.57,2.85-1.27,5.72,1.57,7.9-.04,2.3,2.6,2.32,3.39,4.01.85,1.83,2.93,2.05,4.54,2.89.79.41,1.41,1.34,1.87,2.17.36.65.34,1.51.49,2.25,2.17.81,4.18.6,6.13-.39,2.17-1.11,4.45-1.67,6.91-1.42.49.05,1,.03,1.48-.07,1.92-.4,3.82-.99,5.75-1.2.99-.11,2.05.44,3.5.79.8-.3,2.05-1.3,3.36.03.1.1.42.09.56,0,2.32-1.43,4.86-.62,7.29-.68,1.83-.04,3.57-.08,5.03-1.48.95.43,1.83.84,2.76,1.26,2.18-.75,4.37-1.53,6.58-2.23.41-.13,1.05-.05,1.39.2,2.15,1.57,4.29,1.15,6.46-.11.41.71.74,1.27,1.11,1.92,2.44-1.03,4.79-1.56,7.06.27.4.32,1.14.23,1.73.29.49.05,1.07-.11,1.48.1,3.87,2,6.73-.27,9.99-1.89,3.01-1.49,6.27-3.5,9.94-.85,2.21,1.59,4.71.53,6.96-.37.98-.39,1.8-.79,2.77-.16.16.1.38.22.56.19,3.33-.43,6.66-.89,10.29-1.37-.53,1.78-1.1,3.68-1.72,5.73-1.15.57-2.4.69-3.5-.27-.96-.83-1.98-.85-3.06-.5-.96.31-1.32,1.18-.67,1.83.73.73,1.77,1.34,2.77,1.53.9.18,1.93-.27,3.06-.47.23.43.6,1.11.92,1.72.25.01.42.06.44.02,1.68-2.84,5.28-3.71,6.96-7.09-.99-.71-2.13-1.53-3.26-2.34q1.54-1.01,4.64-.37c.17,2.21,1.82,2.27,3.59,2.33,1.34.05,2.68.37,4.01.96.53-.24,1.05-.65,1.59-.68,2.52-.11,4.52-1.31,6.74-2.37,2.62-1.25,5.83-1.31,8.81-1.72.8-.11,1.76.25,2.52.65,1.72.91,3.49.94,5.14.16,1.95-.92,3.73-1.02,5.72-.2.79.32,1.92-.17,2.69.17,1.01.45,1.74.45,2.78.06,1.62-.6,4.59,1.23,5.17,2.98.28.83.44,1.7.66,2.56,1.03-1.17,1.8-2.52,2.96-3.21,1.2-.71,2.79-.77,4.18-1.1.69,1.05,1.42,2.16,2.35,3.56.63-1,1.04-1.63,1.54-2.43.73.36,1.48.72,2.19,1.07.37-.2.69-.28.88-.48,2.83-2.93,6.14-2.41,9.61-1.55,1.34.33,2.83.2,4.23.08,1.54-.13,3.05-.48,4.62-.74.69,1.17,1.23,2.09,1.82,3.11,1.55-.73,3.09-2.03,4.88-.56,2.76-.55,5.53-1.11,8.4-1.68.4.56.78,1.08,1.33,1.85,1.33-2.51,3.07-3.19,5.18-1.3.83-.45,1.51-.82,2.26-1.24,2.59,2.2,5.69,1.57,8.61,1.55,1.85-.02,3.69-.83,5.56-.93,1.07-.06,2.18.59,3.5,1,.63-.35,1.47-.82,2.43-1.36.64.93,1.25,1.81,1.87,2.7.2-.16.37-.26.48-.4.61-.81.69-2.41,2.15-2.02,1.4.38,2.29,1.52,2.46,3.06.06.59.09,1.18.54,1.86.22-.73.36-1.5.69-2.17.43-.87.94-1.73,1.56-2.48.56-.67,1.32-1.19,2.06-1.84,2.14.62,4.15,3.14,6.08.8,1.69.32,3.01.8,4.32.77,2.82-.08,5.75.77,8.45-.94.54-.34,1.59-.13,2.29.13,1.97.71,3.9.52,5.88.14,1.26-.24,2.55-.33,3.83-.47,1.75-.19,3.4-.15,4.25,1.79.08.17.21.35.36.46,1.19.87,7.67.43,8.79-.66,1.05-1.02,1.98-1.91,3.61-.97.46.26,1.3-.19,1.96-.21,1.26-.05,2.77-.47,3.74.06,2.3,1.26,4.31,1.13,6.24-.29q2.88,1.37,5.66.01c1.01.44,2.05,1.59,3.34.32.19-.19.78-.13,1.11,0,2.08.8,4.15,1.66,6.36,2.56.77-.94,1.56-1.9,2.46-3,3.1,2.33,6.03,1.97,9.35.69,1.95-.75,4.43-.14,7.13-.14-.42,1.41-.71,2.4-1.01,3.41.71.54,1.45.7,1.86-.33.57-1.4,1.56-1.96,3.02-1.9.36.01.79-.18,1.07-.42,1.52-1.28,3.19-1.03,4.78-.37,2.53,1.05,4.97.97,7.55.16,1.38-.43,2.93-.31,4.4-.48,1.53-.17,3.06-.39,5.06-.66,2.57.85,5.7,1.89,9.17,3.04,2.98-1.38,5.99-3.54,9.86-3.68,3.69-.13,6.83,1.49,10.51,2.37,3.21-1.21,6.63-1.83,9.1,2,1.81-.15,3.29-.48,3.81-2.35,3.2,1.61,7.28-1.03,9.88,2.55,1.01-1.14,1.8-2.02,2.77-3.11,3.22,2.32,6.95,1.69,10.59,1.63,2.46-.04,4.77.02,6.36,2.31.2.29.66.41,1.09.66.59-.36,1.19-.7,1.76-1.07,3.4-2.2,7.19-1.77,10.93-1.66.39.01.84.07,1.15.26,2.03,1.26,3.96,1.47,6.04-.03.8-.58,1.52.13,1.63,1.06.13,1.17.12,2.36.17,3.48q2.51,1,4.95.17c.26-.99.52-2.02.87-3.37,1,.83,1.8,1.49,2.78,2.3,1.97-.97,4.1-1.72,6.29-.23.21.14.63.25.81.14,3.17-1.9,4.31.77,5.51,2.65.84,1.31,1.56,2.19,3.21,2.05,1.29-.1,2.12-.57,2.8-1.78,1.48-2.63,2.03-2.74,4.77-1.67.37.14.75.46,1.1.43,2.75-.25,3.94,1.88,5.51,3.49,2.02,2.06,2.61,4.55,2.49,7.34,1.95.78,1.84-1.25,2.56-1.87,2.11.79,4.17,1.51,6.17,2.35.56.23.96.84,1.42,1.29.34.32.6.81,1,.97,2.34.95,3.26,2.75,3.14,5.17Zm-693.98-67.2c-.86.94-1.21,1.42-1.65,1.79-.51.42-1.05.87-1.65,1.1-2.69,1.06-2.86,1.52-1.3,4.01-1.26,2.98-3.58,5.66-2.95,9.33.11.64-.58,1.41-.8,1.92.5,1.58.93,2.97,1.43,4.54.86-1.98,1.5-3.8,2.42-5.46,1.06-1.94,1.65-3.77.25-5.78-.12-.17-.02-.51-.02-.82.74.22,1.34.4,1.96.58,1.55-2.93,3.03-5.7,4.67-8.79-.77-.79-1.44-1.49-2.35-2.42Zm614.69,176.96c-.61,1.1-1.16,2.01-1.63,2.97-.53,1.08-.19,1.73.93,1.93,2.52.47,5.07-1.85,5.07-5.19-1.5,1.71-2.97,1.03-4.36.28Z"/>
        <path d="m845.47,245.04c.7,0,1.48-.06,2.24.01,1.68.15,2.22.93,2.28,2.83.05,1.68,1.45,2.47,2.59,3.34.76.58,1.75.87,2.97,1.45.25-.88.45-1.69.7-2.48.44-1.4,1.35-1.65,2.37-.56,1.03,1.1,1.27,2.77,2.94,3.49.75.32.21,2.23-.64,3.06-.46.45-1.01.95-1.2,1.53-.85,2.56-.81,2.58-3.13,4.1.06,2.05-.46,3.97-2.43,5.23-.38.24-.79.75-.83,1.18-.39,3.66-2.85,6.2-4.72,9.09-1.81,2.81-3.37,5.78-5.17,8.91.29.85.66,1.94,1.08,3.17-1.66,1.15-3.28,2.2-4.82,3.37-.42.32-.61.96-.88,1.46-.83,1.56-1.82,3.07-2.44,4.72-.84,2.19-2.31,3.85-3.82,5.54-.71.8-1.32,1.8-1.65,2.81-.63,1.92-1.57,3.59-2.99,5.02-1.11,1.12-1.22,2.45-.6,3.85.32.73.64,1.46,1.03,2.15.8,1.42,1.1,2.73-.32,4.01-1.14,1.02-1.03,2.27-.23,3.42-2.01,1.87-2.7,3.96-1.98,6.55.22.8.08,1.76-.11,2.6-.24,1.05-.71,2.05-1.15,3.27-1.26-1.38-2-3.75-4.77-2.33.43.45.82.86,1.24,1.29.16,4.66-2.42,8.09-5.58,11.45.18.57.5,1.29.63,2.04.32,1.83-.48,2.53-2.4,2.94-1.39.3-2.66,1.15-4.32,1.91-.24-.11-.84-.38-1.62-.72-.06.42-.17.78-.14,1.11.1.97,2.26.68,1.37,2.44-.38.75.64,2.1-.93,2.55-.09.03-.18.38-.12.5.97,2.01.3,2.94-1.87,3.11-.28.02-.72.9-.69,1.36.03.54.48,1.06.8,1.72-.87,1.02-1.75,2.07-2.66,3.11-.32.37-.65.79-1.07,1.02q-3.69,2.01-5.48,4.28c.2,1.38.44,2.63.56,3.88.09.93-.33,1.51-1.12,2.2-2.03,1.77-3.82,3.83-5.81,5.88-.6-.82-1.14-1.54-1.94-2.62-.91,2.5-4.01,3.22-3.19,6.46-2.25-.22-3.6.88-4.7,2.36-.23.31-.53.67-.55,1.01-.03.72.45,1.82.13,2.1-1.01.91-2.33,2.17-3.46,2.11-3.38-.17-6.31,1.55-9.78,1.8-.38.88-.82,1.85-1.24,2.83-.49,1.14-.37,2.15.73,2.87,1.2.79,1.54,1.64.65,2.96-1,1.49.14,2.35,1.17,3.17.37-.57.73-1.11,1.15-1.76.55,1.08.99,1.95,1.44,2.84-.57,1.03-1.1,1.7-2.56,1.04-1.02-.46-2.33-.32-3.52-.35-1.87-.05-3.65-.01-5.53-.69-1.33-.48-3.11-.04-4.68-.4-1.23-.28-2.48-.47-3.73-.61-.43-.05-.92.07-1.33.24-1.36.53-2.68.77-3.97-.15-.16-.12-.45-.34-.47-.32-1.71,1.84-3.22-.19-4.82-.24-1.69-.05-3.4.16-5.07-.05-1.92-.24-3.83-.71-5.67-1.31-.57-.19-.89-1.14-1.3-1.72-.57.59-1.08,1.55-1.83,1.82-1.62.58-3.63.06-5.54-1.09-1.3,1.26-2.71,1.41-4.32.13-1.4-1.11-3.02-2.12-4.82-.51-.15.13-.61.12-.79-.01-2.11-1.46-4.45-.56-6.67-.62-1.86-.05-3.57,0-4.7-1.81-.18-.28-.68-.36-1.24-.63-.69,2.37-2.48,2.62-4.56,2.6-1.36-.02-2.72.52-4.09.54-1.44.02-2.92-.12-4.32-.46-1.9-.46-3.72-1.21-5.6-1.74-.46-.13-1.02.07-1.52.18-.28.06-.64.43-.77.34-2.11-1.35-4.09.54-6.22.21-2.13-.33-4.36-.04-6.55-.02-2.19.02-4.38.01-6.56.05-2.19.03-4.45.47-6.54.06-2.27-.45-4.38.18-6.56.11-.89-.03-1.95.17-2.63-.24-1.55-.95-2.79-.68-3.92.39-2.56-.95-4.97-1.84-7.38-2.73.03-.18.05-.37.08-.55-1.3.67-2.6,1.33-4.06,2.08-1.99-.91-4.07-1.86-6.23-2.84-.94,3.01-4.53,1.43-6.53,3.04-1.95-1.5-5.18-.17-6.45-2.75-3.89,3.03-7.65,1.72-11.53-.43-.96,1.89-2.86,1.35-4.41,1.77-.14-.13-.35-.22-.42-.38-1.46-3.39-4.18-3.82-6.52-1.02-.53.64-.99,1.7-1.62,1.81-1.42.25-2.94.15-4.4-.02-1.64-.19-3.25-.63-4.88-.94-.77-.14-1.62-.07-2.32-.37-.8-.34-1.39-.5-2.18.05-.42.3-1.2.43-1.68.26-2.01-.73-4.33-.43-6.04-2.01-1.42.77-2.72,1.47-4.02,2.16-1.85-.54-.41-2.68-1.91-3.55-1.85.7-3.83,1.46-5.99,2.28-.52-.28-1.21-.66-1.86-1.02-3.36,1.64-9.47,1.75-12.45.18-1.93,1.34-3.97,1.96-6.2.3-.43-.32-1.46-.31-1.92-.01-1.95,1.27-3.71,1.09-5.5-.46-1.75,1.12-3.53,1.85-5.49.57-.29-.19-.93-.25-1.14-.07-1.4,1.23-2.65.37-3.75-.35-1.79-1.18-3.41-1.15-5.27-.14-2.03,1.11-3.25.71-4.83-1.27-.62.91-1.22,1.79-1.8,2.64-2.26-.62-4.38-1.21-6.01-3.01-.68-.75-1.88-1.03-2.75-1.47-.35.18-.64.23-.68.37-.71,2.27-2.36,3.37-4.55,4.14-1.74.61-3.29,1.78-4.94,2.67-.42.23-.91.47-1.37.49-1.31.06-2.54.11-3.6,1.11-.31.3-1.22.29-1.65.05-.42-.23-.73-.92-.77-1.43-.02-.28.68-.92.95-.87,2.38.45,3.93-1.81,6.61-1.54-1.5-2.15-.81-4.74-2.87-6.27-.18-.14-.06-.72-.02-1.09.02-.27.13-.53.18-.69-1.19-.9-2.28-1.73-3.38-2.56q-1.53,1.24.04,5.01c-.75.89-1.54,1.83-2.46,2.91-.63-.51-1.29-1.06-1.94-1.59q-3.02,1.17-4.87-1.42c-1.72.45-3.39.82-5.03,1.33-1.58.49-3.12,1.11-5.08,1.82-.13.26-.49.94-.84,1.62-4.39.61-8.22-.38-11.45-3.5-2.76,1.11-5.1,4.08-8.61,1.7-.17.38-.31.7-.46,1.01-.17.33-.36.66-.52.95-3.77-.68-4.29-1.26-3.75-4.27h1.95c-.17-1.86-1.48-2.03-2.66-2.38-.7,1.35-1.37,2.63-2.18,4.18.25.46,2.03.57,1.04,2.32-1.32-.7-2.66-.97-4.23-.14-2.27,1.21-3.17.85-4.11-1.56-.59-1.52-1.56-2.03-2.68-1.22-2.22,1.6-4.56.76-6.98.93-1.13-2.63-.15-5.39-.92-8.28-.99.5-1.88.96-3,1.53.88,1.06,1.6,1.93,2.35,2.83-.52,2.06-1.64,2.87-3.81,3.03-2.08.15-4.09,1.14-6.14,1.72-1.28.36-2.57.66-3.78.97-.56-.97-.91-1.56-1.33-2.3-.71.56-1.37,1.08-1.97,1.56-2.18.19-1.28-3.13-3.4-2.98-.12.28-.28.48-.24.61.28.9,1.21,1.99.05,2.62-.67.37-1.83-.05-2.74-.25-1.33-.3-2.63-.72-4.17-1.15.57-1.18,2.79-2.02,1.16-3.79-1,1.33-1.87,2.82-3.08,3.94-.57.53-1.8.33-3.22.54.89-1.25,1.45-2.05,2.17-3.06-.71-.94-1.45-1.93-2.53-3.37-.2,1.18-.25,1.81-.43,2.41-.2.65-.34,1.5-.81,1.87-2,1.56-4.12,2.98-6.24,4.48-2.22-2.54,1.23-3.41,1.36-5.76-1.69.86-3.01,1.54-4.39,2.24-.78-.88-1.52-1.71-2.67-3.02-.34,1.3-.55,2-.7,2.72-.45,2.25-1.11,2.79-3.33,3.01-1.55.15-3.07.64-4.61.69-1.22.04-2.57-.14-3.67-.64-1.84-.83-3.74-.45-5.72-.75-.25.93-.5,1.87-.75,2.81-2.34-.62-4.56-1.22-6.97-1.86-.49.64-1.08,1.42-1.8,2.36-.59-.38-1.14-.73-1.88-1.21-1.43,1.07-2.93,1.51-4.69.14-.96-.74-2.38-1.09-3.64-1.21-1.22-.12-2.5.22-3.73.49-.95.2-1.85.81-2.79.86-2.23.13-4.5-1.12-6.73.13-.07.04-.23.03-.29-.02-2.43-1.93-5.37-.76-8.01-1.35-1.14-.25-2.21-.85-3.26-1.39-1.56-.81-3.9-1.12-5.7-1.03-.88.04-1.79-.57-2.87-.96-.82,1.19-1.68,2.44-2.61,3.81-1.69-.96-3.07-.98-4.82-.32-1.51.57-3.45,0-5.74-.08-.18.16-.83.75-1.62,1.46-2.21-1.8-4.42-3.6-6.78-5.52-.27.22-.66.5-1,.82-1.84,1.71-1.89,1.71-3.49-.72-1.47.61-2.93,1.56-4.49,1.77-1.34.18-2.73-.47-4.12.36-.9.53-1.99.73-3.2,1.14-.25-.15-.69-.37-1.09-.64-2.45-1.67-4.79-2.02-7.24.15-1.26,1.11-2.89,1.15-4.8.32.26-1.2.53-2.4.85-3.88-.58.05-1.07.09-1.64.13-.39-.57-.83-1.21-1.36-1.98-.87.44-1.63.83-2.58,1.31-.47-.65-.95-1.31-1.51-2.07-1.4,3.31-4.27,1.61-6.5,2.04-1.49.29-1.78-.93-2.26-1.96-1.11.43-2.19,1.02-3.3-.04-.29-.28-.94-.31-1.41-.28-1.95.14-3.63-.06-5.05-1.77-.52-.63-2.01-.75-3.01-.65-2.38.23-4.46-.32-6.56-1.45-1.16-.62-2.62-.8-3.97-.9-2.03-.14-4.07-.04-6.1-.04-.03-.24-.06-.48-.1-.72.56-.16,1.1-.41,1.67-.46.99-.09,1.99-.04,2.98-.07,1.42-.05,1.59-.86,1.22-2.05-2.52-.87-4.86-1.87-6.76-3.98-1.35-1.5-2.81-2.85-4-4.54-1.17-1.66-3.42-2.42-4.18-4.55-.11-.32-.56-.69-.89-.73-3.64-.49-4.06-4.16-6.13-6.19-.82-.8-1.35-1.92-1.98-2.9-.58-.9-1.13-1.83-1.7-2.74-1.04-1.66-2.09-3.32-3.15-4.97-.21-.33-.7-.58-.75-.91-.38-2.75-2.89-4.32-3.74-6.86-.61-1.84-1.87-3.47-2.84-5.19-.24-.43-.7-.87-.69-1.29.09-2.39-1.47-3.74-2.93-5.26-.78-.81-1.26-1.96-1.75-3.01-1.08-2.32-1.86-4.84-4.44-6.14.39-2.05-.65-3.41-2-4.7-1.99-1.92-3.95-3.83-4.33-6.88-.15-1.18-.99-2.38-1.78-3.35-1.49-1.82-3.46-3.25-3.58-5.97-.03-.73-1.02-1.42-1.56-2.13-.63-.82-1.74-1.45-.96-2.8.11-.2-.23-.69-.42-1.01-.73-1.29-1.72-2.49-2.17-3.87-.6-1.86-1.66-3.1-3.59-3.87.16-.98.32-1.9.5-2.99-2.32.06-3.69-1.13-4.34-3.28-.14-.45-.45-.92-.81-1.22-1.68-1.43-2.75-3.05-2.47-5.42.08-.64-.49-1.46-.96-2.04-.93-1.16-2.03-2.19-3.01-3.31-.67-.77-1.75-1.38-.95-2.76.16-.27-.39-1.04-.73-1.48-1.62-2.13-3.36-4.14-3.45-7.09-.03-.79-1-1.66-1.71-2.31-2.49-2.27-3.15-5.32-3.89-8.4-.43-1.8-1.23-3.52-1.9-5.26-.67-1.73-1.84-3.34-1.15-5.54.48.07.98.14,1.62.23-.18-1.87-.35-3.7-.55-5.71,4.77,1.68,9.2,1.16,13.83.48.55,1.1,1.21,2.42,1.96,3.91,1.09-.85,2.17-1.29,3.32-.06.31.34,1.38.52,1.62.29,1.68-1.66,3.58-.46,5.5-.61.07.81.14,1.59.19,2.37.05.95.42,1.57,1.32,2.12.9.56,1.52,1.58,2.64,2.81.78-.28,2.03-.72,3.46-1.23.53.59.84,1.86,2.49,1.26.47-.17,2.3.41,2.62,1.96.09.44.98.98,1.53,1,1.69.08,3.22.29,4.84,1.02,1.99.89,4.09.1,6.14-1.32,1.25,1.46,2.72,2.72,3.59,4.31,1.01,1.86,2.42,2.72,4.42,3.16.37-.65.7-1.23,1.02-1.79,2.88,1.04,6.18,1.01,8.33,3.53,1.15,1.35,2.43,2.31,4.66,2.33-.12,1.52-.23,2.92-.37,4.58.49-.17.98-.36,1.47-.5.55-.16,1.34-.58,1.64-.36,1.89,1.41,4.01.86,6.06.94,2.28.09,3.84,1.62,4.19,3.98.2,1.36.58,2.68.93,4.24.43-.27.91-.41,1.13-.74,1.08-1.56,2.75-1.76,4.27-1.42,2.66.6,5.35,1.4,6.85,4.07.09.17.15.39.29.5.77.59,1.69,1.05,2.31,1.77.53.62.74,1.52,1.09,2.29q4.08-1.76,5.71,1.02c.66-.2,1.36-.41,2.27-.69,1.12,1.51,3.53,1.83,4.2,4.07.06.21.46.42.73.47,2.06.38,3.35,1.59,3.96,3.86,3.39-.58,6.56-.28,9.18,2.44-.24.83-.62,1.74-.72,2.67-.1.9.09,1.83.42,2.74.78-1.32.25-3.1,2.11-3.91.8.03.82,1.99,2.4,1.15.48-.25,2.14.62,2.42,1.32.7,1.7,2.22,1.7,3.46,2.37,1.4.76,3.48.57,4.02,2.65.03.13.31.24.49.29,4.21,1.3,7.98,3.49,11.3,6.29,1.99,1.68,3.95.86,5.83.54,1.8-.31,3.47-1.36,5.33-2.14-.27-.63-.53-1.05-.64-1.51-.39-1.58.61-3.11,2.21-3.03,1.35.06,2.71.48,3.99.94,2.96,1.06,5.86,2.26,8.8,3.38.46.18.95.3,1.44.36,2.06.26,2.53-.02,3.76-2.27,1.02.54,1.99,1.3,3.08,1.56.92.22,1.98-.14,3.3-.28-.4-.62-.66-1.06-.97-1.47-.43-.57-.9-1.12-1.35-1.68.64-.36,1.26-.75,1.92-1.08.78-.39,1.59-.73,2.53-1.16,2.22,1.86,4.51,1.33,6.79-.12,2.5-1.59,5.17-2.85,7.2-5.2,2.05-2.38,4.23-4.53,3.5-8.11.8-.24,1.35-.41,1.89-.57,4.45-1.29,4.73-1.53,6.86-5.84q1.16-2.34,3.11-3.48c-.15-.5-.32-1.03-.5-1.61.93-.29,1.86-.59,2.81-.89.62-2.22-1.48-4.56.87-6.73,1.62-.63,3.63-1.41,5.61-2.18.07-.41.22-.72.15-.98-.65-2.73-.25-3.34,2.38-3.58,2.95-.27,3.62-1.43,2.46-4.37,1.49-1.41,2.99-2.85,4.51-4.26.5-.46,1.09-.83,1.59-1.3.46-.43,1.17-.93,1.19-1.43.05-1-.85-1.17-1.71-1.19-.38,0-.76-.15-1.44-.3.63-.84,1.13-1.51,1.66-2.22,1.53.23,2.84,2.37,4.31.16.8.66,1.47,1.21,2.36,1.94.41-.53,1.21-1.15,1.1-1.47-.4-1.14-.36-2.56-1.85-3.19-.75-.31-1.32-1.05-1.97-1.91,2.23-.12,3.41-1.38,4.66-2.88,1.03-1.23,2.34-2.69,4.49-1.99.31.1.93-.75,1.37-1.13-.96-1.11-1.76-2.04-2.75-3.2-1.25-.08-2.79-.18-4.34-.27,1.57-1.26,3.17-2.31,5.1-2.38,1.69-.06,2.71-.59,3.3-2.34.46-1.34,1.56-2.46,2.36-3.66,1,.34,1.73.59,2.43.83,2.05-1.91,4.45-3.29,5.4-6.33,1.66,1.43,2.92,1.58,4.56.59,1.64-.99,3.62-1.47,5.51-1.92.54-.13,1.69.44,1.87.94.51,1.43,1.43,1.73,2.75,1.64,4.57-.3,8.14,1.56,10.93,5.1.23.3.53.6.87.75,1.89.85,3.76,1.75,5.7,2.46,3.84,1.41,4.42,2.1,4.64,6.07.02.29.12.57.25,1.1.69.11,1.52.05,2.17.37,1.45.7,4.11.06,3.64,3.07-.02.13.17.36.32.42,3.42,1.49,5.45,5.52,9.76,5.38.08,0,.16.1.17.1,1.17,1.89,2.3,3.7,3.47,5.58,2.13.39,4.46.65,5.34,3.3.06.17.23.36.39.43,2.34.91,4.35,2,5.38,4.65.45,1.16,2.24,1.77,3.34,2.73.97.84,1.64,1.8,1.8,3.26.15,1.3.71,2.98,1.68,3.68,1.63,1.17,1.98,2.29,1.1,3.93,1.6,1.09,3.07,2.05,4.49,3.09,1.1.81,1.74,3.46,1.24,4.84-.16.45-.35.9-.57,1.46,1.38,1.1,2.72,1.97,4.42,2.32,3.26.67,4.41,1.96,4.9,5.1,1.35.35,2.62.68,3.93,1.02-.09.52-.11.8-.18,1.07-.07.28-.19.55-.31.87,2.26,1.18,1.52-1.4,2.87-2.08,2.39.91,5.06,2.11,7.84,2.9,1.36.39,2.88.34,4.32.67,4.6,1.05,8.78-.53,12.96-2.2,2.01-.8,4.07-1.45,5.82-2.78,3.96.18,6.33-2.9,9.33-4.64,1.91-1.11,3.69-2.29,5.37-2.14,1.61-1.3,2.78-2.27,3.98-3.21.31-.24.88-.32.99-.61.87-2.19,3.02-2.59,4.78-3.51,1.47-.77,2.56-1.65,2.61-3.6.03-1.31.43-2.92,2.61-2.03.24.1,1.17-.97,1.48-1.64,1.56-3.39,4.89-4.71,7.7-6.6.47-.31,1.59-.03,2.21.33,1.27.72,2.24.64,3.11-.53.78-1.04,1.82-1.37,3.11-1.44.8-.04,2.11-.47,2.25-.98.52-1.9,1.82-2.78,3.48-3.62-1.11-.16-2.22-.31-3.56-.5.34-1.18.39-1.7,2-1.78,3.44-.17,7.22-.38,9.72-3.15,1.65-1.82,3.86-3.1,4.9-5.67.72-1.76,2.62-3.1,4.16-4.44.9-.79,1.82-1.07,1.44-2.76-.21-.91,1.23-2.2,1.95-3.36,1.92,1.62,3.57,3,5.2,4.38-.56,2.77-1.12,5.54-1.64,8.32-.04.2.3.47.44.68,1.67-.33,3.28-.64,5.1-1,.39.51.84,1.11,1.41,1.86.46-.68.93-1.37,1.52-2.24,4.76,2.93,9.21,6.06,13.72,9.84.17-.06.77-.29,1.64-.62,1.81,2.4,4.95,4.01,5.29,7.1,1.37,1.41,2.6,2.38,3.43,3.61,1.12,1.66,2.13,3.36,3.94,4.37.09.05.19.09.24.17,1.23,1.91,2.78,3.43,4.97,4.25.35.13.44.83.74,1.19,1.21,1.43,2.39,2.89,3.72,4.2,1.46,1.45,3.07,2.76,4.62,4.12,1.03.91,2.06,1.83,3.1,2.74.15.13.4.16.5.31,4.55,6.97,12.18,11.16,16.65,18.04,2.77,4.26,6.97,7.32,9.12,12.03.48,1.06,2.15,2.2,3.3,2.23,3.96.11,6.55,1.9,8.2,5.34,2.56.17,5.09.34,7.63.5.11.23.21.47.32.7.47-.64.94-1.27,1.41-1.91.73-.99,1.63-1.57,2.91-1.17.31-1.39,1.57-.84,2.35-1.24.91-.46,1.45-1.61,2.29-2.3,1.04-.85,2.02-1.77,3.65-1.56.85.11,1.8-.55,2.86-.91-.73-1.56-.52-2.72,1.17-3.27.94-.31,1.87-.67,2.78-1.06,2.27-.96,4.44-.75,7.01,1.07-.81-2.39,1.38-4.25-.58-5.97,1.23-1.83,2.51-3.22,4.81-3.28.71-.02,1.55-.52,2.08-1.05,2.33-2.33,5.3-3.41,8.3-4.4,1.34-.44,2.78-.6,4.19-.77,1.42-.17,2.71-.05,3.64,1.38.44.68,1.36,1.05,2.17,1.63-.46.63-.95,1.24-1.38,1.9-1.04,1.59-.66,2.33,1.26,2.4.56.02,1.12-.13,1.77-.22.25-1.45-.9-3.32,2.06-3.76-3-1.35-2.44-5.67-6.66-4.76,2-3.01,4.7-2.4,7.01-2.71q.24-1.64-3.69-4.1c.42-1.07,1.18-1.66,2.32-1.96,2.38-.63,4.05-2.19,5.78-3.95,3.53-3.58,7.29-7,12.22-8.71.63-.22,1.29-.86,1.57-1.48.62-1.37,1.33-2.26,3-2.44.71-.07,1.3-1.17,2.05-1.88.53.19,1.24.59,1.99.69,1.33.17,2.42-.08,3.21-1.51.99-1.79,2.35-3.37,3.39-4.81,2.66.76,4.86,1.39,7.17,2.05.9-2.66-2.95-1.88-2.63-4.22,2.75-1.41,5.26-3.86,8.99-3.49.4.04.85-.74,1.31-1.1.88-.68,1.24-2.54,3.02-1.36.11.07.58-.45.91-.66,1.13-.7,2.27-1.38,3.54-1.89.71-.74.67-1.92,2.19-2.39,1.61-.5,2.95-1.87,4.4-2.85.78.05,2,.49,2.5.07,1.24-1.05,2.14-.6,3.14.15.85-.76,1.66-1.47,2.36-2.08,1.57.06,1.24,2.59,3.42,1.87.19-1.68.39-3.51.58-5.28,3.64-.91,7.29-1.83,11.48-2.88-.12-.06.4.21,1.06.55.47-.69.95-1.4,1.47-2.17.78.41,1.47.78,2.21,1.17.26-.08.55-.13.81-.24.72-.31,1.43-.91,2.14-.91,1.34,0,2.69.49,4.03.49,1.31,0,2.66-.64,3.94-.51,2.77.28,4.41,2.21,5.4,5.96Zm-733.22,0c.57,4.92,2.65,8.55,4.91,12.41,1.69-2.74.41-5.51,1.11-8.4.62.82,1.01,1.33,1.5,1.98.49-.59.9-1.09,1.37-1.65-2.32-2.64-5.51-2.97-8.89-4.33Z"/>
      </g>
    </g>
    <text class="cls-1" transform="translate(131.38 780.65)"><tspan x="0" y="0">MANIFEST</tspan></text>
  </g>
</svg>