<svg width="140" height="82" viewBox="0 0 140 82" fill="none" xmlns="http://www.w3.org/2000/svg">
<g clip-path="url(#clip0_13_2)">
<path d="M136.329 57.051C136.477 57.125 136.602 57.1898 136.667 57.2223C136.797 57.5463 136.899 57.8055 137.01 58.0786C137.283 58.0092 137.483 57.9583 137.742 57.8935C137.974 58.5415 138.192 59.1387 138.433 59.8145C138.785 59.9441 138.906 60.4116 139.17 60.7496C139.258 60.8653 139.304 61.0134 139.383 61.1338C139.559 61.393 139.564 61.6383 139.397 61.9115C139.272 62.1105 139.184 62.3327 139.096 62.5179C139.318 62.6938 139.61 62.8095 139.684 63.0085C139.842 63.4344 139.916 63.8973 139.953 64.351C139.967 64.513 139.823 64.7629 139.68 64.8555C139.3 65.1009 139.179 65.4203 139.23 65.8415C139.239 65.9109 139.202 65.985 139.179 66.0868C139.045 66.0498 138.929 66.0128 138.734 65.9572C138.776 66.1285 138.771 66.2813 138.845 66.3738C139.003 66.5775 139.184 66.7719 139.383 66.9339C139.749 67.2302 139.819 67.6098 139.703 68.031C139.624 68.3088 139.503 68.568 139.378 68.8967C139.165 68.7208 139.012 68.6004 138.841 68.4615C138.729 68.6513 138.655 68.8411 138.526 68.9707C138.4 69.0957 138.22 69.1559 138.062 69.2485C138.196 69.4058 138.308 69.591 138.465 69.7114C138.6 69.8132 138.785 69.8641 138.952 69.9104C139.072 69.9428 139.221 69.9104 139.332 69.9521C139.698 70.0956 139.758 70.452 139.48 70.7344C139.402 70.8131 139.318 70.8825 139.23 70.9566C139.309 71.1278 139.383 71.2852 139.466 71.475C139.276 71.5908 139.11 71.688 138.91 71.8129C139.258 72.3592 139.202 72.9378 139.128 73.5257C139.1 73.7432 139.207 73.9793 139.267 74.2802C139.054 74.4376 138.771 74.6413 138.484 74.8496C138.521 74.8959 138.558 74.9422 138.6 74.9885H138.864C138.887 75.368 138.864 75.706 138.734 76.0948C138.553 76.6271 138.298 77.0993 138.03 77.5807C137.733 78.1084 137.321 78.4186 136.727 78.4973C136.621 78.5112 136.519 78.5621 136.352 78.613C136.5 78.7195 136.607 78.7935 136.75 78.8954C136.301 79.3212 136.769 79.7564 136.783 80.2609C135.694 80.247 134.674 80.4415 133.585 80.6451C133.413 80.5664 133.163 80.4553 132.89 80.3304C132.746 80.4461 132.602 80.5572 132.431 80.6914C132.301 80.6312 132.157 80.5618 131.995 80.4877C131.93 80.5201 131.856 80.5387 131.805 80.5849C131.513 80.8534 131.138 80.8349 130.869 80.6683C130.456 80.409 130.053 80.5109 129.618 80.497C129.539 80.6451 129.465 80.7886 129.381 80.9506C128.825 80.9229 128.264 81.0988 127.824 80.7655C127.449 80.8349 127.133 80.8905 126.814 80.9506C126.726 80.9692 126.624 80.9784 126.549 81.0293C126.322 81.1775 126.128 81.1728 125.882 81.034C125.743 80.9553 125.502 80.9321 125.368 81.0016C124.964 81.2145 124.658 81.1682 124.45 80.7747C123.931 80.872 123.509 80.6729 123.064 80.497C122.601 80.8025 122.082 80.6451 121.567 80.6498C121.484 80.4877 121.405 80.3442 121.335 80.2054H120.534C120.529 80.2378 120.52 80.2702 120.515 80.3026C120.705 80.3628 120.895 80.4229 121.113 80.497C121.067 80.5942 121.048 80.696 121.002 80.7099C120.436 80.9182 119.903 81.3117 119.24 81.0571C118.935 80.9368 118.615 80.8488 118.286 80.7377C118.137 80.7979 117.952 80.8442 117.804 80.9414C117.345 81.2515 116.974 81.1312 116.64 80.747C116.594 80.6914 116.52 80.6636 116.446 80.6081C116.279 80.6775 116.112 80.747 115.852 80.8488C115.769 80.7238 115.672 80.5711 115.565 80.4044C115.324 80.534 115.116 80.7192 114.888 80.4785C114.865 80.4507 114.81 80.4137 114.8 80.4229C114.202 80.8488 113.669 80.0248 113.095 80.4183C112.96 80.2146 112.872 80.085 112.766 79.923C112.52 80.0758 112.279 80.1035 112.015 79.9091C111.899 79.8212 111.7 79.8258 111.538 79.8258C111.218 79.8258 110.995 79.6915 110.903 79.3907C110.768 78.9463 110.481 78.7704 110.027 78.812C109.512 78.8629 109.081 78.5713 108.613 78.4325C107.844 78.2103 107.213 77.7474 106.615 77.215C106.37 76.9928 105.985 76.9326 105.67 76.7799C105.549 76.7197 105.392 76.641 105.346 76.5299C105.081 75.905 104.562 75.7013 103.955 75.5856C103.714 75.5393 103.482 75.3912 103.265 75.2616C103.209 75.2245 103.218 75.081 103.186 74.9422C103.343 74.9746 103.445 74.9931 103.543 75.0116C103.872 74.7524 103.927 74.2478 103.658 73.9423C103.513 73.7757 103.459 73.6121 103.496 73.4516C103.246 73.2634 103.011 73.2171 102.792 73.3127C102.356 73.0767 102.189 72.6462 101.999 72.2666C102.018 71.6926 102.602 71.6278 102.884 71.2714C102.657 70.9195 102.407 70.6418 101.958 70.54C102.013 70.4242 102.06 70.3317 102.12 70.2113C102.013 70.0817 101.897 69.9428 101.749 69.7715C101.879 69.5401 102.022 69.2809 101.763 69.0031C101.652 68.8828 101.698 68.6976 101.874 68.6467C102.226 68.5495 102.208 68.2995 102.171 67.9986C102.004 67.8736 101.666 67.8459 101.744 67.4617C101.86 67.3922 101.995 67.3182 102.161 67.2256C101.99 67.1423 101.846 67.096 101.73 67.0126C101.466 66.8275 101.452 66.6794 101.55 66.3507C101.605 66.1609 101.591 65.948 101.61 65.6702C101.642 65.6471 101.744 65.5823 101.842 65.5175C101.837 65.4619 101.846 65.4156 101.828 65.3925C101.503 65.0268 101.267 64.6194 101.179 64.1288C101.16 64.0223 101.068 63.8788 100.97 63.8371C100.72 63.7353 100.451 63.6288 100.182 63.6196C99.4224 63.5872 98.6623 63.6196 97.9068 63.5918C97.6612 63.5825 97.4155 63.4761 97.1699 63.4252C96.9381 63.3789 96.7064 63.3465 96.4747 63.3048C96.1873 63.2539 95.9046 63.1983 95.6172 63.152C95.367 63.1104 95.1121 63.0641 94.8571 63.0502C94.6022 63.0363 94.3473 63.078 94.1156 62.8974C94.0136 62.8187 93.8421 62.8188 93.6985 62.8095C93.4575 62.7956 93.2165 62.7817 92.9754 62.8095C92.6186 62.8419 92.2663 62.9021 91.8029 62.9669C91.7704 62.9206 91.6685 62.7817 91.5387 62.6012C91.4089 63.0317 91.0937 63.0409 90.7183 63.0363C90.3197 63.0363 89.9165 63.1289 89.5179 63.1983C89.2074 63.2539 88.9062 63.3465 88.6188 63.1104C88.5354 63.0456 88.3454 63.0224 88.2573 63.0733C87.8263 63.3187 87.3582 63.2816 86.904 63.2446C86.5054 63.2122 86.1856 63.3835 85.838 63.4992C85.5228 63.6057 85.6897 63.9251 85.5367 64.1751C85.2957 64.2121 85.013 64.2584 84.7071 64.3047C84.6793 64.4111 84.6376 64.513 84.6283 64.6194C84.6098 64.8046 84.5356 64.8972 84.3549 64.9805C83.998 65.1471 83.9887 65.4943 84.3039 65.698C84.6747 65.9387 84.7581 66.2072 84.4475 66.4757C84.0443 66.8275 83.9748 67.1932 84.3085 67.6839C83.9563 67.707 83.6875 67.7209 83.3491 67.744C83.3352 68.1143 83.3213 68.4754 83.3167 68.8365C83.3167 69.0772 83.3445 69.3179 83.1545 69.5169C83.1081 69.5632 83.0803 69.6512 83.0757 69.7206C83.071 70.4196 83.0757 71.1186 83.0757 71.8268C83.4186 71.85 83.7384 71.5167 84.0351 71.8407C83.8497 72.5304 83.7941 72.6091 83.2796 72.8313C83.2796 73.5766 83.2564 74.3497 83.2935 75.1227C83.3028 75.3866 83.4789 75.6411 83.3723 75.9189C83.6365 76.1596 83.4789 76.479 83.516 76.7614C83.5299 76.8725 83.4696 76.9928 83.4465 77.1039C83.4047 77.1039 83.3677 77.1039 83.326 77.1039C83.2981 76.8493 83.2703 76.5994 83.2425 76.3494C82.5519 75.9698 82.3156 75.9652 81.8567 76.3633C82.1626 76.4096 82.4407 76.4466 82.7976 76.5022C82.6771 76.8077 82.5844 77.0437 82.4917 77.2845C82.7976 77.502 83.2472 77.3724 83.4186 77.7612C83.2379 78.0482 83.0664 77.7566 82.881 77.7612C82.6446 78.1825 83.1313 78.1408 83.2518 78.3491C83.0896 78.4695 82.932 78.5945 82.6864 78.7796C83.0108 78.8907 83.2611 78.974 83.516 79.0574C83.4186 79.3397 83.3352 79.5712 83.224 79.8952C83.4279 79.8212 83.5206 79.7841 83.6411 79.7378C83.8172 79.9045 84.0073 80.0804 84.2761 80.335C84.0536 80.3859 83.9053 80.4646 83.7662 80.4461C83.3816 80.3998 83.034 80.4507 82.7234 80.7192C82.1719 80.2794 81.5879 80.3766 80.9391 80.4924C81.0132 80.7192 81.0688 80.8812 81.1384 81.108C80.471 81.1219 79.8267 81.1497 79.1871 81.1451C79.0898 81.1451 78.9739 81.0247 78.8998 80.9275C78.7468 80.7285 78.6124 80.5063 78.4409 80.247C78.3065 80.4553 78.186 80.6127 78.0887 80.7886C77.9497 81.0479 77.7597 81.1451 77.4584 81.1358C76.8095 81.1127 76.1607 81.0941 75.5118 81.1265C75.0483 81.1497 74.7702 80.9831 74.6312 80.5526C74.6127 80.5016 74.5802 80.46 74.5153 80.3489C74.2836 80.9414 73.797 80.8442 73.3474 80.8303C72.9581 80.821 72.5734 80.7979 72.2258 81.0432C72.0311 81.1821 71.8318 81.0895 71.6557 80.9738C71.3313 80.7516 71.0069 80.7655 70.6592 80.9229C70.5017 80.9969 70.2792 81.0664 70.1355 81.0108C69.4357 80.7284 68.7127 80.8257 67.9943 80.7933C67.7301 80.7794 67.4659 80.7099 67.123 80.6544C66.4695 81.0478 65.7279 80.7238 65.1949 80.2563C64.9863 80.0758 64.8056 80.0156 64.56 80.0156C63.9111 80.0156 63.2622 80.0156 62.6134 80.0063C62.4697 80.0063 62.275 80.0202 62.187 79.9415C61.8672 79.6406 61.5103 79.4694 61.0793 79.3768C60.9031 79.3397 60.7826 79.2518 60.5787 79.3259C60.435 79.3768 60.2218 79.3073 60.0689 79.2333C59.7352 79.0713 59.332 78.9833 59.2115 78.5111C58.8685 78.451 58.5163 78.3862 58.1269 78.3214C58.0018 78.1547 57.8396 77.9325 57.6774 77.715C57.6542 77.6872 57.6218 77.6548 57.6171 77.6224C57.5152 76.9327 57.0239 76.4605 56.6716 75.9096C56.5233 75.6828 56.5326 75.456 56.6948 75.2384C56.7829 75.1227 56.8895 75.0162 57.0192 74.8635C56.8848 74.6413 56.6948 74.3774 57.0007 74.1228C56.8107 73.8081 57.1166 73.5303 57.0795 73.2387C57.0424 72.9563 56.9266 72.6832 56.8385 72.3731C56.9034 72.3314 56.9775 72.2851 57.0471 72.2296C57.149 72.1416 57.2463 72.0444 57.3483 71.9518C57.2417 71.8639 57.1351 71.7805 57.0285 71.6926C57.0007 71.6694 56.9775 71.6463 57.0285 71.6926C56.8663 71.151 57.0563 70.6649 56.8478 70.1789C56.908 70.0771 56.9822 69.9521 57.0702 69.804C56.6716 69.5308 56.5511 69.1559 56.6068 68.6976C56.6207 68.5634 56.565 68.4106 56.5094 68.2764C56.287 67.7116 56.287 67.6931 56.7087 67.2672C56.7458 67.2302 56.7782 67.1839 56.8339 67.1099C56.6207 66.8136 56.2592 66.5544 56.3936 66.1192C56.5002 65.7721 56.6624 65.4388 56.806 65.0823C56.6577 64.6472 56.3148 64.2445 56.3889 63.7075C56.4028 63.6103 56.287 63.4853 56.2128 63.3881C56.0135 63.1289 55.805 62.8697 55.5918 62.6197C55.2812 62.254 54.9614 61.8976 54.6324 61.5226C54.3589 61.5967 54.0994 61.8096 53.8491 61.5458C53.8259 61.518 53.6961 61.5967 53.6127 61.6245C53.2095 61.768 52.8156 61.8096 52.5097 61.43C52.3382 61.2217 52.125 61.1708 51.8701 61.1847C51.6661 61.1986 51.4622 61.1708 51.2583 61.194C51.1424 61.2078 50.9848 61.2588 50.9385 61.3467C50.8968 61.4254 50.9663 61.5782 51.0219 61.68C51.059 61.7587 51.1517 61.805 51.2166 61.8652C51.3463 61.8235 51.4576 61.7818 51.6383 61.7263C51.6059 62.3605 51.0775 62.5364 50.7207 63.0085C50.6558 62.6799 50.6141 62.4808 50.5538 62.1985C50.1181 62.6197 49.7196 62.9946 49.3024 63.3974C48.9826 63.1474 48.4543 63.1891 48.3755 62.6336C48.3013 62.129 48.6907 61.9902 49.0243 61.7217C48.6397 61.6939 48.2504 61.6615 47.8657 61.6383C47.4532 61.6106 47.036 61.5597 46.6236 61.5828C46.2296 61.6059 45.8403 61.7124 45.3675 61.7957C45.1497 61.643 44.8485 61.5967 44.5194 61.7957C44.2738 61.9439 44.0188 61.8652 43.7825 61.7356C43.5739 61.6198 43.3839 61.68 43.1568 61.717C42.6238 61.805 42.1881 62.2586 41.5995 62.1105C41.53 62.092 41.4327 62.1753 41.3539 62.217C41.2705 62.2586 41.2009 62.3373 41.1175 62.3558C40.5613 62.4577 40.0052 62.5503 39.4166 62.6475C39.3563 62.7539 39.3053 62.9021 39.208 63.0039C39.0736 63.1428 38.9021 63.3326 38.7445 63.3372C38.4155 63.3465 38.2857 63.5131 38.193 63.777C38.0401 64.2167 37.6739 64.4482 37.2753 64.5778C36.9045 64.6981 36.7655 64.9342 36.7562 65.2629C36.7516 65.4804 36.645 65.6008 36.5013 65.7211C36.0332 66.1192 35.7273 66.596 35.7227 67.2348C35.7227 67.332 35.6578 67.4293 35.6115 67.5635C35.4168 67.4987 35.2499 67.4431 35.0831 67.3876C34.9533 67.8366 34.9487 67.8459 35.3195 68.0634C35.477 68.1606 35.5234 68.2625 35.4029 68.4523C35.236 68.3967 35.0646 68.3412 34.8004 68.2532C34.8514 68.4476 34.8699 68.5634 34.907 68.6698C34.9904 68.9013 35.0646 69.1513 34.9116 69.3642C34.754 69.5864 34.805 69.7623 34.958 69.9336C34.6026 70.2761 34.5192 70.6572 34.7077 71.0769C34.5779 71.1788 34.4389 71.2899 34.2952 71.401C34.3323 71.563 34.3415 71.7343 34.4111 71.8778C34.6057 72.2712 34.4945 72.6369 34.3276 72.9887C34.0217 73.646 34.0217 73.6923 34.5918 74.1228C34.6196 74.146 34.6382 74.1738 34.666 74.2015C34.6752 74.2386 34.6938 74.271 34.6938 74.308C34.6567 75.044 34.9626 75.6828 35.2639 76.3262C35.3056 76.4142 35.3056 76.5207 35.3102 76.6225C35.3195 76.7567 35.3102 76.8956 35.3102 77.0808C35.0507 77.1548 34.8143 77.2845 34.6567 77.6039C34.4852 77.951 34.5408 78.238 34.6752 78.5435C34.8004 78.8259 34.958 79.0944 35.1202 79.4138C34.8931 79.798 34.6428 80.1961 34.0542 80.1313C33.9661 80.122 33.8456 80.1128 33.7854 80.1637C33.4285 80.4507 33.0114 80.3535 32.6128 80.3581C31.76 80.3581 30.9072 80.3581 30.0544 80.3396C29.7995 80.335 29.5307 80.2933 29.299 80.2007C28.8633 80.0202 28.4137 79.9739 28.0012 80.1545C27.5517 80.3489 27.1021 80.3257 26.6433 80.3304C26.3837 80.3304 26.1242 80.3304 25.8646 80.3257C25.7719 80.3257 25.6607 80.2933 25.5912 80.3304C24.8218 80.7516 23.9968 80.4831 23.1997 80.5572C22.903 80.5849 22.6064 80.659 22.1939 80.7331C22.0085 80.5988 21.7119 80.534 21.3504 80.7331C21.1743 80.8303 20.9147 80.7701 20.6969 80.7886C20.3725 80.8118 20.0295 80.6914 19.7283 80.9136C19.6819 80.946 19.5568 80.9136 19.4919 80.8719C19.2833 80.7331 19.0469 80.7192 18.8616 80.8395C18.5371 81.0571 18.1895 81.0108 17.8419 81.0108C17.5082 81.0108 17.1838 80.9738 16.8779 81.1821C16.7574 81.2654 16.5581 81.2423 16.3912 81.2423C16.0019 81.2469 15.6126 81.2423 15.2233 81.233C15.0796 81.2284 14.9081 81.2191 14.8015 81.1404C14.5142 80.9182 14.2964 80.9877 14.0832 81.2376C14.0368 81.2932 13.9766 81.3395 13.8931 81.4135C13.7402 81.4043 13.5919 81.3302 13.3833 81.3811C12.8225 81.52 12.2246 81.5895 11.6638 81.3025C11.5619 81.2515 11.4136 81.2376 11.3023 81.2654C11.0196 81.3349 10.7508 81.4459 10.4681 81.52C10.3754 81.5478 10.2641 81.5339 10.1622 81.52C10.037 81.5015 9.90263 81.4135 9.7914 81.4367C9.27231 81.5339 8.85982 81.27 8.43806 81.0479C8.25731 80.9506 8.13217 80.9645 7.93751 81.0016C7.67797 81.0525 7.37207 80.983 7.11253 80.8905C6.57954 80.7007 6.05581 80.4739 5.54599 80.2285C5.30035 80.1128 5.09642 79.9091 4.87859 79.7425C4.73492 79.6314 4.60514 79.4879 4.44756 79.4045C3.89603 79.1175 3.76626 78.7102 4.06752 78.1501C4.08605 78.1177 4.09069 78.0806 4.09532 78.0668C3.86359 77.4696 3.78016 76.891 4.10923 76.317C4.15558 76.2383 4.19265 76.1411 4.18338 76.0578C4.13704 75.5162 4.3595 74.9561 4.06288 74.4283C4.0119 74.3358 4.03044 74.1645 4.08142 74.0673C4.239 73.7757 4.28998 73.4794 4.20656 73.16C4.18802 73.0906 4.18802 73.0026 4.22046 72.9471C4.41512 72.5767 4.33169 72.211 4.14631 71.887C3.95165 71.5398 4.01653 71.2575 4.23437 70.9705C4.33633 70.8408 4.44293 70.7112 4.54026 70.577C4.59587 70.5029 4.68393 70.4242 4.6793 70.3502C4.67003 69.7299 4.7998 69.1096 4.56807 68.4893C4.41512 68.0727 4.2529 67.619 4.42439 67.1469C4.4522 67.0728 4.43829 66.9525 4.39194 66.8877C4.20192 66.6238 4.2251 66.3276 4.2251 66.0359C4.22973 65.5175 4.23437 64.999 4.239 64.4806C4.239 64.1102 4.25754 63.7399 4.05361 63.402C4.00263 63.3141 3.99336 63.1891 3.98872 63.0826C3.97019 62.7401 4.2529 62.4438 4.03507 62.0364C3.8914 61.7633 4.01653 61.3513 4.01653 60.9995C4.01653 60.8329 4.05825 60.6292 3.97482 60.5089C3.71064 60.12 3.77089 59.6942 3.78943 59.2775C3.8126 58.8563 3.74772 58.5138 3.31206 58.3332C3.24717 58.3055 3.20082 58.2453 3.12203 58.1758C3.21009 58.0694 3.29352 57.9814 3.36304 57.8842C3.82188 57.2408 3.84041 57.0556 3.44183 56.3566C3.33986 56.1807 3.28425 56.0465 3.38621 55.8474C3.43256 55.7549 3.38621 55.616 3.37694 55.4956C3.37231 55.3892 3.3445 55.2781 3.36767 55.1809C3.40475 55.0281 3.55306 54.8615 3.51598 54.7457C3.47427 54.6254 3.27034 54.5606 3.11276 54.4587C3.2379 54.306 3.36304 54.1532 3.52525 53.9588C3.15447 53.8384 2.99689 53.5931 3.11276 53.2274C3.19155 52.9682 3.24717 52.6904 3.38158 52.4636C3.54843 52.1859 3.44646 51.9776 3.32132 51.7554C3.23326 51.598 3.1174 51.4823 3.24253 51.2601C3.30278 51.1536 3.15911 50.9407 3.09886 50.7416C3.22863 50.6583 3.36304 50.5703 3.52525 50.4639C3.33523 49.913 2.8115 50.163 2.38511 50.0149C2.38048 49.8019 2.28778 49.5196 2.38511 49.3529C2.69564 48.8345 2.62148 48.2836 2.64002 47.7374C2.64002 47.6448 2.64929 47.5568 2.65392 47.4643C2.9181 47.2467 3.36767 47.4411 3.53916 46.9921C3.40012 46.6033 3.27034 46.1681 3.58087 45.733C3.63648 45.6543 3.56233 45.483 3.53916 45.3025C3.36304 45.3812 3.2379 45.3997 3.17301 45.4738C2.90883 45.7793 2.59367 45.9043 2.19045 45.8626C2.10239 45.8534 1.94018 45.9321 1.92164 45.9969C1.83821 46.3024 1.55086 46.3394 1.34693 46.469C1.09202 46.631 0.716609 46.5709 0.53122 46.3718C0.322657 46.1496 0.43389 45.9321 0.554393 45.7145C0.679531 45.4877 0.77686 45.247 0.911267 45.0294C1.02714 44.8442 1.15691 44.6452 1.33303 44.5248C1.60184 44.335 1.92627 44.2239 2.0097 43.8536C2.01897 43.8259 2.05604 43.7934 2.08849 43.7796C2.71881 43.5064 3.1313 42.9649 3.63649 42.5344C3.77553 42.4186 3.99799 42.3955 4.18802 42.3446C4.32706 42.3075 4.54026 42.3538 4.60978 42.2705C4.9203 41.8909 5.40695 41.9233 5.787 41.715C5.92141 41.641 6.10679 41.6456 6.26901 41.641C6.61198 41.6317 6.96422 41.715 7.27938 41.4604C7.35354 41.4002 7.55746 41.4604 7.6826 41.5067C7.77993 41.5437 7.84482 41.6548 7.92824 41.7289C8.18315 41.9465 8.25731 41.9418 8.44733 41.6687C8.49831 41.5947 8.53539 41.5113 8.58637 41.4188C8.92934 41.4188 9.26304 41.4326 9.59211 41.4141C9.7914 41.4049 9.99996 41.3771 10.1807 41.2938C10.38 41.2058 10.5515 41.1179 10.7369 41.2938C10.913 41.465 11.1586 41.0392 11.3209 41.3586C11.8121 41.4604 12.3034 41.5715 12.7993 41.6687C13.0125 41.7104 13.1794 41.6271 13.3462 41.4743C13.7587 41.0947 13.768 41.104 14.199 41.5021C14.2546 41.553 14.3103 41.5993 14.3751 41.6548C14.7088 41.4419 14.9777 40.9096 15.3809 41.391C15.798 41.3262 16.1549 41.2521 16.5118 41.2197C16.6647 41.2058 16.8501 41.2567 16.9845 41.3354C17.1792 41.4512 17.3414 41.5252 17.536 41.354C17.5638 41.3308 17.6241 41.2984 17.6334 41.3077C17.93 41.6271 18.2915 41.2336 18.602 41.391C18.653 41.4141 18.7411 41.3817 18.8059 41.3586C19.4316 41.1225 20.011 41.1966 20.5996 41.5299C20.9796 41.7428 21.4153 41.877 21.837 42.002C22.282 42.1363 22.6157 41.8955 22.9169 41.5576C23.144 41.7011 23.3619 41.8585 23.6168 41.641C23.6539 41.6085 23.7558 41.6317 23.8207 41.6502C23.9412 41.6872 24.0571 41.7659 24.1822 41.7752C24.4371 41.7937 24.6967 41.7798 24.9655 41.7798C25.0535 41.6132 25.1277 41.4743 25.188 41.3632C25.8368 41.266 26.4532 41.1734 27.0743 41.0947C27.1716 41.0808 27.2829 41.1503 27.3895 41.178C27.5656 41.2243 27.7417 41.2706 27.9178 41.3123C28.0429 41.3401 28.2005 41.3215 28.2886 41.3864C28.5898 41.6132 28.9143 41.5576 29.2712 41.5345C29.3824 41.1873 29.5909 40.9651 29.9988 41.0901C30.0173 41.0947 30.0359 41.0855 30.0544 41.0901C30.2723 41.1734 30.3789 40.7892 30.6523 40.9697C30.8238 41.0855 31.0694 41.0901 31.3197 41.1595C31.278 41.2753 31.2409 41.3817 31.1946 41.5113C31.3892 41.5576 31.5839 41.6085 31.8388 41.6687C31.6951 41.877 31.5792 42.0437 31.4448 42.2335C31.8202 42.4371 32.0983 42.2427 32.3996 42.0622C32.5572 42.252 32.7008 42.4325 32.8862 42.6547C33.0994 42.4742 33.2895 42.3122 33.5027 42.1316C33.8688 42.9047 34.5501 42.9093 35.287 42.8538C35.3612 42.7149 35.4307 42.576 35.5558 42.3399C35.6115 42.5575 35.6485 42.6686 35.6717 42.7843C35.7088 42.9787 35.7505 43.1732 35.7737 43.3722C35.7829 43.4648 35.7737 43.5759 35.7412 43.6592C35.6346 43.9138 35.579 44.1869 35.82 44.3674C36.1769 44.6406 36.2093 44.9137 35.9591 45.2053C36.1166 45.4553 36.251 45.6728 36.3947 45.8858C36.5847 46.1635 36.6821 46.4181 36.4596 46.7421C36.3576 46.8903 36.3947 47.1356 36.3669 47.3347C36.3298 47.6031 36.2186 47.8809 36.2603 48.1355C36.3391 48.6261 35.8849 49.0937 36.2232 49.5936C36.2696 49.6631 36.2186 49.8066 36.1954 49.9084C36.0888 50.4407 35.9591 50.9731 36.4874 51.3758C36.4781 51.8017 36.9694 51.8063 37.1177 52.1211C37.2753 52.4636 37.6646 52.5053 37.9613 52.658C38.1096 52.7367 38.2254 52.908 38.3089 53.0608C38.3737 53.1811 38.3738 53.3431 38.4016 53.4774C38.8048 53.6301 39.1802 53.5885 39.5417 53.4033C39.9449 53.195 40.3713 53.0932 40.8302 53.1395C40.9229 53.1487 41.0155 53.1441 41.1082 53.1256C41.4651 53.0515 41.8173 52.9404 42.1789 52.9034C42.3642 52.8849 42.5635 52.9867 42.8277 53.0515C42.976 52.996 43.2078 52.8108 43.4534 53.0561C43.4719 53.0746 43.5322 53.0746 43.56 53.0561C43.991 52.7876 44.4638 52.9404 44.918 52.9311C45.2563 52.9219 45.5854 52.9173 45.8542 52.658C46.0303 52.7367 46.1972 52.8154 46.3687 52.8941C46.7765 52.7552 47.1797 52.6071 47.5922 52.4775C47.6664 52.4544 47.7869 52.4682 47.8518 52.5145C48.2504 52.8062 48.6489 52.7275 49.0568 52.496C49.1309 52.6256 49.1958 52.7321 49.2654 52.8525C49.7196 52.6627 50.1552 52.5608 50.5816 52.9034C50.6558 52.9635 50.7948 52.945 50.9014 52.9589C50.9941 52.9682 51.1007 52.9404 51.1749 52.9774C51.8932 53.3478 52.4262 52.9265 53.0334 52.6256C53.5942 52.3479 54.2013 51.9729 54.8826 52.4682C55.2951 52.7645 55.7586 52.5655 56.1804 52.3988C56.3658 52.3247 56.5141 52.2507 56.6948 52.371C56.7273 52.3896 56.7643 52.4127 56.7968 52.4081C57.4178 52.3294 58.0389 52.2414 58.7109 52.1535C58.6136 52.4821 58.507 52.8386 58.3911 53.2181C58.1779 53.3246 57.9462 53.3478 57.7376 53.1672C57.5569 53.0145 57.3715 53.0098 57.1676 53.0746C56.9868 53.1348 56.9219 53.2922 57.0424 53.4172C57.1768 53.5514 57.3715 53.6672 57.5569 53.7042C57.7237 53.7366 57.9138 53.6533 58.1269 53.6162C58.1687 53.6949 58.2382 53.8246 58.2984 53.9356C58.3448 53.9356 58.3772 53.9449 58.3819 53.9356C58.697 53.4079 59.3644 53.2459 59.6796 52.6164C59.4942 52.4821 59.281 52.334 59.0724 52.1812C59.264 52.0547 59.5529 52.0316 59.9391 52.1118C59.9716 52.5238 60.2775 52.5331 60.6065 52.5469C60.8568 52.5562 61.1071 52.6164 61.3527 52.7275C61.4501 52.6858 61.5474 52.6071 61.6493 52.6025C62.1175 52.584 62.4929 52.3572 62.9053 52.1627C63.392 51.9313 63.9899 51.9174 64.546 51.8433C64.6944 51.8248 64.8751 51.8896 65.0142 51.9637C65.3339 52.1303 65.663 52.1396 65.9689 51.9915C66.3304 51.8202 66.6641 51.8017 67.0349 51.9544C67.1832 52.0146 67.3918 51.922 67.5354 51.9868C67.7208 52.0701 67.8599 52.0702 68.0545 51.9961C68.3558 51.885 68.9073 52.2229 69.0186 52.5516C69.0695 52.7043 69.102 52.8663 69.1391 53.0284C69.3291 52.8108 69.4728 52.5608 69.6906 52.4312C69.9131 52.3016 70.2097 52.2877 70.4692 52.2275C70.599 52.422 70.7334 52.6303 70.9049 52.8895C71.0208 52.7043 71.0995 52.584 71.1922 52.4358C71.3266 52.5006 71.4657 52.5701 71.6001 52.6349C71.6696 52.5979 71.7299 52.584 71.7623 52.5469C72.2907 52.0007 72.9071 52.0979 73.5513 52.2599C73.8016 52.3201 74.0797 52.297 74.3392 52.2738C74.6266 52.2507 74.9093 52.1859 75.2013 52.135C75.331 52.3525 75.4284 52.5238 75.5396 52.7136C75.827 52.5793 76.1143 52.334 76.448 52.6071C76.9625 52.5053 77.4769 52.3988 78.0099 52.2923C78.0841 52.3942 78.1536 52.496 78.2556 52.6349C78.5058 52.1674 78.8256 52.0424 79.2196 52.3942C79.3725 52.3109 79.5023 52.2414 79.6413 52.1627C80.1234 52.5701 80.6981 52.4544 81.245 52.4497C81.5879 52.4497 81.9309 52.297 82.2785 52.2785C82.4778 52.2692 82.6817 52.3896 82.932 52.4636C83.0479 52.3988 83.2055 52.3109 83.3816 52.209C83.5021 52.3803 83.6133 52.5469 83.7292 52.7136C83.7663 52.6812 83.7987 52.6673 83.8172 52.6395C83.9331 52.4914 83.947 52.1905 84.2158 52.2646C84.4754 52.334 84.6422 52.5469 84.6747 52.8339C84.6886 52.945 84.6932 53.0515 84.7766 53.1811C84.8183 53.0469 84.8415 52.9034 84.9064 52.7784C84.9852 52.6164 85.0825 52.4544 85.1984 52.3201C85.305 52.1951 85.444 52.0979 85.5831 51.9776C85.9817 52.0933 86.3571 52.5608 86.7139 52.1257C87.0291 52.1859 87.2747 52.2738 87.5157 52.2692C88.0395 52.2553 88.5864 52.4127 89.0869 52.0933C89.1842 52.0285 89.3835 52.0701 89.5133 52.1164C89.8795 52.2507 90.241 52.2136 90.6071 52.1442C90.8435 52.0979 91.0845 52.084 91.3208 52.0563C91.6453 52.0192 91.9558 52.0285 92.1134 52.3895C92.1273 52.422 92.1551 52.4544 92.1829 52.4729C92.4054 52.6349 93.6104 52.5516 93.819 52.3479C94.0136 52.1581 94.1898 51.9915 94.491 52.1674C94.5744 52.2183 94.732 52.135 94.8571 52.1303C95.0935 52.1211 95.3716 52.0424 95.5524 52.1396C95.9788 52.3757 96.3542 52.3525 96.7157 52.084C97.0741 52.2538 97.4248 52.2538 97.7678 52.084C97.9578 52.1674 98.1478 52.3803 98.3888 52.1442C98.4259 52.1072 98.5325 52.1211 98.5974 52.1442C98.9867 52.2923 99.3714 52.4544 99.7839 52.621C99.9275 52.4451 100.076 52.2692 100.243 52.0609C100.822 52.496 101.364 52.4266 101.985 52.1905C102.347 52.0516 102.81 52.1627 103.316 52.1627C103.237 52.4266 103.181 52.6071 103.125 52.7969C103.26 52.8987 103.394 52.9265 103.473 52.7367C103.58 52.4775 103.765 52.371 104.039 52.3849C104.103 52.3849 104.187 52.3525 104.238 52.3062C104.521 52.0655 104.831 52.1118 105.128 52.2368C105.6 52.4312 106.055 52.4173 106.537 52.2646C106.792 52.1859 107.084 52.2044 107.357 52.1766C107.644 52.1442 107.927 52.1025 108.298 52.0563C108.775 52.2136 109.359 52.4081 110.008 52.621C110.564 52.3618 111.125 51.9637 111.843 51.9359C112.529 51.9128 113.113 52.2136 113.799 52.3757C114.397 52.1535 115.032 52.0331 115.496 52.746C115.834 52.7182 116.107 52.658 116.205 52.3109C116.803 52.6117 117.558 52.1211 118.045 52.783C118.235 52.5701 118.378 52.4081 118.559 52.2044C119.157 52.6349 119.852 52.5192 120.529 52.5099C120.988 52.5006 121.419 52.5099 121.715 52.9404C121.752 52.996 121.836 53.0145 121.919 53.0654C122.031 53.0006 122.142 52.9358 122.248 52.8663C122.879 52.459 123.588 52.5377 124.283 52.5562C124.357 52.5562 124.441 52.5701 124.496 52.6071C124.876 52.8432 125.233 52.8802 125.622 52.6025C125.771 52.496 125.905 52.6256 125.924 52.7969C125.947 53.0145 125.947 53.2367 125.956 53.445C126.268 53.5684 126.576 53.5792 126.878 53.4774C126.925 53.2922 126.976 53.1024 127.041 52.8478C127.226 53.0006 127.374 53.1256 127.56 53.2737C127.926 53.0932 128.325 52.9543 128.732 53.232C128.774 53.2598 128.848 53.2783 128.885 53.2598C129.474 52.9034 129.687 53.4033 129.91 53.7505C130.067 53.9958 130.202 54.1578 130.507 54.1301C130.748 54.1116 130.901 54.0236 131.031 53.7968C131.305 53.3061 131.411 53.2876 131.921 53.4866C131.991 53.5144 132.06 53.5746 132.125 53.5653C132.639 53.519 132.857 53.9171 133.149 54.2134C133.525 54.5976 133.636 55.0605 133.613 55.5789C133.974 55.7224 133.956 55.3475 134.09 55.2318C134.484 55.3799 134.864 55.5095 135.24 55.6669C135.341 55.7086 135.416 55.8243 135.504 55.9076C135.569 55.9678 135.615 56.0604 135.689 56.0881C136.125 56.264 136.296 56.602 136.273 57.051H136.329ZM7.08936 44.5526C6.93178 44.7285 6.86226 44.8165 6.78346 44.8859C6.69077 44.9646 6.5888 45.0479 6.47757 45.0896C5.97702 45.2886 5.94458 45.372 6.23657 45.8349C6.0002 46.3903 5.56917 46.8856 5.68503 47.5707C5.70357 47.6911 5.57843 47.8346 5.53672 47.9272C5.62942 48.2234 5.71284 48.478 5.8009 48.7697C5.96312 48.3993 6.07899 48.0614 6.25047 47.7559C6.44976 47.3948 6.55636 47.0523 6.29682 46.682C6.27364 46.6496 6.29682 46.5894 6.29682 46.5292C6.43586 46.5709 6.54709 46.6033 6.66296 46.6357C6.95031 46.0894 7.2284 45.5756 7.53429 45.0016C7.39061 44.8535 7.26547 44.7239 7.09862 44.5526H7.08936ZM121.562 77.465C121.447 77.6687 121.345 77.8399 121.257 78.0158C121.159 78.2149 121.219 78.3352 121.428 78.3769C121.896 78.4649 122.374 78.0344 122.374 77.4141C122.095 77.7335 121.822 77.6039 121.562 77.465Z" fill="white"/>
<path d="M136.945 4.8174C137.075 4.8174 137.218 4.80814 137.362 4.8174C137.677 4.84517 137.775 4.9933 137.784 5.34511C137.793 5.65525 138.053 5.80338 138.266 5.9654C138.41 6.07186 138.59 6.12741 138.817 6.23388C138.864 6.07187 138.901 5.91911 138.947 5.77098C139.031 5.51175 139.197 5.46546 139.388 5.66914C139.578 5.87282 139.624 6.18296 139.934 6.3172C140.073 6.37738 139.971 6.73382 139.814 6.88657C139.726 6.9699 139.629 7.06248 139.591 7.16894C139.434 7.64573 139.443 7.64573 139.007 7.93273C139.017 8.31231 138.924 8.66875 138.558 8.90483C138.488 8.95112 138.41 9.0437 138.405 9.12239C138.331 9.80286 137.872 10.275 137.524 10.812C137.186 11.3351 136.899 11.8859 136.56 12.4692C136.616 12.6266 136.685 12.8302 136.76 13.0571C136.449 13.27 136.148 13.4691 135.86 13.682C135.782 13.7422 135.749 13.8579 135.698 13.9551C135.541 14.2467 135.36 14.5245 135.244 14.8346C135.086 15.242 134.813 15.5521 134.535 15.8669C134.401 16.015 134.289 16.2002 134.229 16.39C134.113 16.7464 133.937 17.0565 133.673 17.325C133.464 17.5333 133.446 17.7787 133.562 18.0425C133.622 18.1768 133.682 18.3156 133.752 18.4406C133.9 18.7045 133.956 18.9498 133.691 19.1859C133.478 19.3757 133.497 19.6071 133.65 19.8247C133.274 20.1719 133.149 20.5607 133.279 21.0421C133.321 21.1903 133.293 21.3708 133.26 21.5282C133.214 21.7226 133.126 21.9124 133.047 22.1392C132.815 21.8846 132.676 21.4402 132.157 21.7041C132.236 21.7874 132.31 21.8661 132.389 21.9448C132.417 22.8104 131.94 23.4492 131.351 24.0742C131.383 24.1806 131.444 24.3149 131.467 24.4537C131.527 24.7963 131.379 24.9213 131.017 25C130.758 25.0555 130.521 25.2129 130.211 25.3564C130.164 25.3379 130.053 25.287 129.91 25.2222C129.9 25.3008 129.877 25.3656 129.882 25.4305C129.9 25.611 130.303 25.5554 130.137 25.8841C130.067 26.023 130.257 26.2729 129.965 26.3609C129.947 26.3655 129.933 26.4303 129.942 26.4535C130.123 26.8284 129.998 26.9997 129.594 27.0321C129.543 27.0321 129.46 27.1987 129.465 27.2821C129.469 27.3839 129.553 27.4811 129.613 27.6015C129.451 27.7913 129.288 27.9857 129.117 28.1801C129.057 28.2495 128.996 28.3282 128.918 28.3699C128.46 28.6199 128.12 28.8853 127.898 29.1661C127.935 29.4207 127.981 29.6568 128 29.8882C128.019 30.0595 127.94 30.1706 127.791 30.2956C127.411 30.6242 127.082 31.0084 126.712 31.388C126.6 31.2353 126.498 31.101 126.35 30.902C126.179 31.3649 125.604 31.4991 125.757 32.1009C125.335 32.0592 125.085 32.2629 124.881 32.5406C124.839 32.5962 124.784 32.6656 124.779 32.7304C124.774 32.8647 124.862 33.0684 124.802 33.1239C124.612 33.2905 124.371 33.5266 124.158 33.5174C123.527 33.485 122.985 33.8044 122.336 33.8507C122.267 34.0127 122.183 34.1932 122.105 34.3784C122.012 34.5913 122.035 34.7765 122.239 34.9107C122.462 35.0588 122.526 35.2162 122.36 35.4616C122.174 35.7393 122.383 35.8967 122.577 36.0494C122.647 35.943 122.712 35.8411 122.791 35.7208C122.893 35.9198 122.976 36.0818 123.059 36.2485C122.953 36.4383 122.855 36.5633 122.582 36.4429C122.392 36.355 122.146 36.3827 121.929 36.3781C121.581 36.3688 121.252 36.3781 120.9 36.2485C120.654 36.1605 120.32 36.2392 120.028 36.1744C119.801 36.1235 119.565 36.0865 119.333 36.0587C119.254 36.0494 119.162 36.0726 119.083 36.105C118.833 36.2022 118.582 36.2485 118.346 36.0772C118.318 36.0541 118.262 36.0124 118.258 36.017C117.938 36.3596 117.66 35.98 117.359 35.9708C117.044 35.9615 116.724 36.0032 116.413 35.9615C116.056 35.9152 115.699 35.8319 115.356 35.7162C115.25 35.6791 115.19 35.5032 115.115 35.3968C115.009 35.5078 114.916 35.6838 114.772 35.7347C114.471 35.8411 114.096 35.7486 113.739 35.531C113.498 35.7671 113.234 35.7948 112.937 35.5541C112.678 35.3458 112.376 35.1607 112.038 35.4616C112.01 35.4847 111.927 35.4847 111.89 35.4616C111.496 35.1884 111.06 35.3551 110.648 35.3458C110.3 35.3366 109.985 35.3458 109.772 35.0079C109.739 34.957 109.646 34.9431 109.54 34.8922C109.41 35.3319 109.076 35.3782 108.692 35.3736C108.437 35.3736 108.187 35.4708 107.932 35.4754C107.663 35.4754 107.389 35.4523 107.13 35.3921C106.778 35.3088 106.435 35.1653 106.087 35.0681C106.004 35.0449 105.897 35.082 105.804 35.1005C105.753 35.1097 105.684 35.1792 105.661 35.1653C105.267 34.9153 104.901 35.2671 104.502 35.2023C104.103 35.1422 103.691 35.1931 103.283 35.2023C102.875 35.2023 102.467 35.2023 102.059 35.2116C101.652 35.2162 101.23 35.2995 100.841 35.2208C100.419 35.1375 100.025 35.2533 99.6216 35.2394C99.4547 35.2347 99.2601 35.2718 99.1349 35.1931C98.8476 35.0172 98.6158 35.0681 98.4073 35.2671C97.9299 35.0912 97.4803 34.9246 97.0354 34.7579C97.04 34.7255 97.0447 34.6885 97.0493 34.6561C96.8083 34.7811 96.5673 34.9061 96.2938 35.0449C95.9231 34.8783 95.5338 34.6978 95.1352 34.5172C94.959 35.0774 94.2916 34.7811 93.9209 35.082C93.5547 34.8042 92.9568 35.0496 92.7205 34.5682C91.9975 35.1329 91.2976 34.8876 90.5746 34.4895C90.3985 34.8413 90.0416 34.7394 89.7542 34.8181C89.7264 34.795 89.6894 34.7765 89.6755 34.7487C89.402 34.1191 88.8968 34.0358 88.4612 34.5589C88.3638 34.6793 88.2758 34.8737 88.1599 34.8968C87.8957 34.9431 87.613 34.9246 87.3396 34.8968C87.0337 34.8598 86.7324 34.7811 86.4311 34.7209C86.2875 34.6931 86.1299 34.707 86.0001 34.6515C85.8518 34.5867 85.7406 34.5589 85.5923 34.6607C85.5135 34.7163 85.3698 34.7394 85.2817 34.707C84.9063 34.5728 84.4753 34.6283 84.1555 34.3321C83.8913 34.4756 83.6503 34.6052 83.4093 34.7348C83.0663 34.633 83.3352 34.2349 83.0524 34.0729C82.7095 34.2025 82.3387 34.3413 81.9355 34.4987C81.8381 34.4478 81.713 34.3784 81.5879 34.3089C80.9622 34.6144 79.8267 34.633 79.2705 34.3413C78.9136 34.5913 78.5289 34.707 78.1165 34.3969C78.0377 34.3367 77.843 34.3367 77.7596 34.3969C77.3981 34.633 77.069 34.6006 76.7353 34.3136C76.4109 34.5219 76.0772 34.6561 75.7157 34.42C75.66 34.383 75.5442 34.3737 75.5025 34.4061C75.2429 34.633 75.0112 34.4756 74.8026 34.3413C74.4689 34.1238 74.1677 34.1284 73.8201 34.3136C73.44 34.5219 73.2129 34.4478 72.9209 34.0775C72.8051 34.2488 72.6938 34.4108 72.5872 34.5682C72.1655 34.4524 71.7715 34.3413 71.4656 34.008C71.3405 33.8692 71.1134 33.8183 70.9558 33.7349C70.8909 33.7673 70.8353 33.7766 70.8307 33.8044C70.6963 34.2256 70.3904 34.4339 69.9825 34.5728C69.6581 34.6885 69.3707 34.9014 69.0602 35.0681C68.9814 35.1097 68.8933 35.156 68.8053 35.1607C68.5643 35.1699 68.3326 35.1792 68.1379 35.369C68.0776 35.4245 67.9108 35.4245 67.832 35.3782C67.7532 35.3366 67.6976 35.207 67.6883 35.1144C67.6883 35.0635 67.8135 34.9431 67.8644 34.9524C68.3094 35.0357 68.5967 34.6144 69.0973 34.6654C68.8192 34.2673 68.9443 33.7859 68.5643 33.4988C68.5318 33.4757 68.555 33.3646 68.5643 33.2952C68.5643 33.2443 68.5875 33.198 68.5967 33.1656C68.3743 32.9989 68.1703 32.8462 67.9664 32.6888C67.7748 32.8431 67.7779 33.1532 67.9757 33.6192C67.8366 33.7859 67.6883 33.9571 67.5168 34.1608C67.401 34.0636 67.2758 33.9618 67.1553 33.8645C66.7815 34.0096 66.4787 33.9216 66.2469 33.6007C65.9271 33.684 65.6166 33.7534 65.3107 33.846C65.0141 33.9386 64.7314 34.0543 64.3652 34.1839C64.3421 34.2302 64.2772 34.3599 64.2076 34.4848C63.3919 34.5959 62.6782 34.4154 62.0757 33.8321C61.5612 34.0404 61.1255 34.5913 60.4721 34.1469C60.4396 34.2164 60.4164 34.2765 60.384 34.3321C60.3515 34.3923 60.3191 34.4524 60.2867 34.508C59.5822 34.383 59.4895 34.2719 59.5868 33.7164H59.9483C59.9159 33.3692 59.6702 33.3368 59.4524 33.272C59.3226 33.522 59.1975 33.7627 59.0446 34.0497C59.0909 34.133 59.42 34.1562 59.2392 34.4802C58.9936 34.3506 58.7433 34.2997 58.4513 34.4524C58.0296 34.6793 57.8627 34.6098 57.6866 34.1608C57.5754 33.8784 57.3946 33.7859 57.186 33.934C56.7735 34.2302 56.3379 34.0729 55.8883 34.1053C55.6798 33.6146 55.8605 33.1008 55.7168 32.5638C55.5314 32.6564 55.3646 32.7397 55.1607 32.8462C55.3229 33.0452 55.4573 33.2072 55.5963 33.3739C55.499 33.7581 55.2904 33.9062 54.8872 33.9386C54.4979 33.9664 54.1271 34.1515 53.7424 34.258C53.5061 34.3274 53.2651 34.3784 53.038 34.4385C52.9314 34.258 52.8711 34.1469 52.7877 34.008C52.6533 34.1145 52.5328 34.2117 52.4215 34.2997C52.0137 34.3367 52.1852 33.7164 51.7866 33.7442C51.7634 33.7951 51.7356 33.8321 51.7402 33.8553C51.7912 34.0219 51.9673 34.2256 51.7495 34.3413C51.6244 34.4108 51.4112 34.3321 51.2397 34.295C50.994 34.2395 50.7484 34.1608 50.4611 34.0821C50.5677 33.8645 50.9801 33.7072 50.6742 33.3785C50.4889 33.6238 50.3266 33.9016 50.0995 34.1099C49.9929 34.2071 49.7658 34.1701 49.497 34.2117C49.6639 33.9803 49.7658 33.8321 49.9002 33.6424C49.7705 33.4664 49.6314 33.2813 49.4275 33.0174C49.3904 33.235 49.3812 33.3554 49.3487 33.4664C49.3116 33.5868 49.2838 33.7442 49.2004 33.8136C48.825 34.1053 48.431 34.3691 48.0371 34.6469C47.6246 34.1747 48.2688 34.0127 48.2874 33.5729C47.9722 33.7349 47.7266 33.8599 47.467 33.9895C47.3233 33.8275 47.1843 33.6701 46.9711 33.4294C46.9062 33.6701 46.8691 33.8044 46.8413 33.934C46.7579 34.3506 46.6328 34.4524 46.2203 34.4941C45.9329 34.5219 45.6502 34.6144 45.3629 34.6237C45.1358 34.6283 44.8855 34.5959 44.6815 34.5033C44.3386 34.3506 43.9863 34.42 43.6156 34.3645C43.5692 34.5358 43.5229 34.7117 43.4765 34.8876C43.0409 34.7718 42.6284 34.6607 42.1788 34.5404C42.0861 34.6607 41.9795 34.8042 41.8451 34.9801C41.7339 34.9107 41.6319 34.8459 41.4929 34.7579C41.224 34.957 40.946 35.0403 40.6215 34.7857C40.4408 34.6468 40.1766 34.582 39.9449 34.5589C39.7178 34.5358 39.4767 34.6006 39.2496 34.6515C39.0735 34.6885 38.9067 34.7996 38.7306 34.8135C38.3134 34.8366 37.8917 34.6052 37.4792 34.8366C37.4653 34.8459 37.4375 34.8413 37.4236 34.8366C36.9694 34.4802 36.4225 34.6978 35.9312 34.5867C35.718 34.5404 35.5187 34.4293 35.324 34.3274C35.0367 34.1747 34.5964 34.1191 34.2627 34.133C34.1005 34.1423 33.929 34.0266 33.7297 33.9525C33.5767 34.1747 33.4192 34.4061 33.243 34.6607C32.9279 34.4802 32.6683 34.4756 32.3439 34.6006C32.0612 34.707 31.7043 34.6006 31.2733 34.5867C31.2408 34.6144 31.1203 34.7255 30.972 34.8598C30.5595 34.5265 30.1471 34.1886 29.7068 33.8321C29.6558 33.8738 29.5862 33.9247 29.5214 33.9849C29.1784 34.3043 29.1691 34.3043 28.8725 33.8507C28.5991 33.9664 28.3256 34.1423 28.0383 34.1793C27.788 34.2117 27.5284 34.0914 27.2689 34.2441C27.102 34.3413 26.8981 34.3784 26.671 34.4571C26.6247 34.4293 26.5412 34.3876 26.4671 34.3367C26.0082 34.0266 25.5772 33.9618 25.1184 34.3645C24.8866 34.5728 24.5807 34.5774 24.2239 34.4247C24.2749 34.2025 24.3212 33.9803 24.3815 33.7025C24.2749 33.7118 24.1822 33.7164 24.0756 33.7257C24.0014 33.6192 23.9226 33.4989 23.8207 33.3554C23.6584 33.4387 23.5148 33.5081 23.3433 33.6007C23.2552 33.4803 23.1672 33.3554 23.0606 33.2165C22.801 33.8321 22.2634 33.5174 21.8509 33.5961C21.5728 33.6516 21.5172 33.4248 21.4291 33.2304C21.2206 33.3091 21.0213 33.4202 20.8173 33.2211C20.7617 33.1702 20.6412 33.1656 20.5532 33.1702C20.1917 33.198 19.8765 33.1609 19.6123 32.8415C19.515 32.7258 19.2369 32.7027 19.0515 32.7212C18.6066 32.7628 18.2219 32.661 17.828 32.4527C17.6101 32.337 17.3413 32.3046 17.0864 32.286C16.711 32.2583 16.3263 32.2814 15.9509 32.2814C15.9463 32.2351 15.937 32.1935 15.9323 32.1472C16.0343 32.1194 16.1363 32.0731 16.2429 32.0639C16.4283 32.0453 16.6137 32.0546 16.799 32.05C17.0632 32.0407 17.0957 31.8879 17.0261 31.6704C16.558 31.5084 16.1224 31.3232 15.7655 30.9297C15.5152 30.652 15.2418 30.402 15.0193 30.0873C14.8015 29.7771 14.3843 29.6382 14.2407 29.2401C14.2175 29.18 14.1387 29.1105 14.0738 29.1059C13.3972 29.0133 13.3184 28.3329 12.9337 27.9533C12.7807 27.8051 12.6834 27.5968 12.5629 27.4117C12.4563 27.245 12.3543 27.0738 12.2477 26.9025C12.0531 26.5923 11.8584 26.2868 11.6591 25.9767C11.6174 25.9165 11.5294 25.8702 11.5201 25.8054C11.4506 25.2916 10.9825 25 10.8249 24.5278C10.709 24.1852 10.4773 23.8844 10.2965 23.565C10.2502 23.4863 10.1668 23.4029 10.1668 23.3243C10.1853 22.8799 9.8933 22.6299 9.61985 22.3475C9.47154 22.1948 9.38348 21.9818 9.29542 21.7874C9.09149 21.3569 8.94782 20.8894 8.47044 20.644C8.5446 20.2645 8.34994 20.0099 8.09966 19.7692C7.72888 19.4127 7.36274 19.0563 7.29322 18.4915C7.26541 18.274 7.10783 18.0472 6.95952 17.8666C6.68144 17.5287 6.31529 17.2602 6.29212 16.7557C6.28749 16.6214 6.1021 16.4918 6.00013 16.3622C5.88426 16.2094 5.6757 16.0937 5.81938 15.8437C5.84255 15.8067 5.77767 15.7141 5.74059 15.654C5.60618 15.4132 5.42079 15.191 5.33737 14.9318C5.22613 14.5846 5.02684 14.3532 4.66997 14.2097C4.70241 14.0292 4.73022 13.8579 4.76266 13.6542C4.33163 13.6681 4.07672 13.4459 3.95622 13.0432C3.93304 12.9599 3.87279 12.8719 3.80327 12.8164C3.48811 12.5525 3.29345 12.2516 3.34443 11.8072C3.35834 11.6869 3.25174 11.5341 3.16368 11.4276C2.98756 11.2101 2.78363 11.0203 2.60288 10.812C2.47774 10.6685 2.27845 10.5528 2.42676 10.2982C2.45457 10.2472 2.3526 10.1037 2.29235 10.0204C1.99109 9.62233 1.66666 9.25201 1.64813 8.70115C1.64349 8.55302 1.46274 8.39101 1.32833 8.27065C0.864858 7.84941 0.744354 7.28004 0.605312 6.71067C0.526522 6.37738 0.378211 6.05798 0.253073 5.73395C0.127936 5.41454 -0.0898961 5.11366 0.0398762 4.70167C0.127936 4.71556 0.22063 4.72945 0.341133 4.74333C0.30869 4.39616 0.276247 4.05361 0.239169 3.68329C1.12904 3.99806 1.95402 3.90085 2.81608 3.77124C2.91804 3.97492 3.04318 4.22025 3.18222 4.498C3.38615 4.34061 3.58544 4.25729 3.79864 4.48874C3.85889 4.54891 4.05355 4.58595 4.0999 4.54429C4.41042 4.23414 4.7673 4.46096 5.12417 4.42856C5.13807 4.58132 5.15198 4.72482 5.16125 4.86832C5.17052 5.04422 5.24004 5.15995 5.40689 5.26178C5.57374 5.36362 5.6896 5.55341 5.89817 5.78486C6.04184 5.73395 6.27822 5.65062 6.5424 5.55341C6.63973 5.66451 6.69998 5.90059 7.00587 5.78949C7.09393 5.75709 7.43226 5.86356 7.49251 6.15519C7.51105 6.23851 7.67327 6.33572 7.77523 6.34035C8.09039 6.35424 8.37311 6.3959 8.679 6.53014C9.04978 6.69678 9.4391 6.54866 9.82378 6.2848C10.0555 6.55328 10.329 6.78936 10.4912 7.08562C10.6812 7.4328 10.9408 7.59019 11.3162 7.67351C11.3857 7.55315 11.4459 7.44669 11.5062 7.34022C12.0438 7.53464 12.6556 7.53001 13.0588 7.99754C13.272 8.24751 13.513 8.42804 13.9255 8.43267C13.9023 8.71504 13.8838 8.97427 13.856 9.28441C13.9487 9.25201 14.0367 9.2196 14.1294 9.19183C14.2314 9.16405 14.3797 9.08536 14.4353 9.12702C14.7876 9.39088 15.1815 9.28904 15.5662 9.30293C15.9926 9.32144 16.28 9.60381 16.3448 10.0436C16.3819 10.2935 16.4514 10.5435 16.521 10.8305C16.5997 10.7796 16.6878 10.7518 16.7295 10.6916C16.9288 10.4 17.244 10.363 17.5221 10.4278C18.018 10.5389 18.5185 10.687 18.7966 11.1823C18.8151 11.2147 18.8244 11.2564 18.8522 11.2749C18.9959 11.386 19.1674 11.4693 19.2833 11.6036C19.3806 11.7193 19.4223 11.8859 19.4872 12.0294C19.9939 11.8103 20.3477 11.8736 20.5485 12.2192C20.669 12.1822 20.8034 12.1405 20.9703 12.0896C21.1789 12.372 21.6284 12.4275 21.7536 12.8441C21.7675 12.8858 21.837 12.9228 21.888 12.9321C22.2727 13.0015 22.5137 13.2283 22.6249 13.6496C23.2552 13.5431 23.8485 13.5987 24.3351 14.1032C24.2934 14.256 24.2192 14.4273 24.2007 14.5985C24.1822 14.7652 24.2192 14.9365 24.2795 15.1077C24.4232 14.8624 24.3258 14.5291 24.6734 14.381C24.8218 14.3856 24.8264 14.7513 25.1184 14.5939C25.2064 14.5476 25.517 14.7096 25.5679 14.8392C25.6977 15.154 25.9804 15.154 26.2122 15.279C26.4717 15.4225 26.861 15.3855 26.963 15.7697C26.9676 15.7928 27.0232 15.8113 27.0557 15.8252C27.839 16.0659 28.5434 16.4733 29.1599 16.9964C29.5306 17.3065 29.8968 17.1584 30.2444 17.0982C30.5781 17.0427 30.8886 16.8436 31.2362 16.7001C31.1852 16.5844 31.1389 16.5057 31.1157 16.4177C31.0416 16.1261 31.2269 15.8391 31.5282 15.853C31.7785 15.8669 32.0334 15.941 32.2698 16.0289C32.8213 16.228 33.3636 16.4501 33.9104 16.6585C33.9939 16.6909 34.0866 16.714 34.1793 16.7233C34.5639 16.7695 34.652 16.7233 34.8791 16.302C35.0691 16.4039 35.2499 16.5427 35.4538 16.5936C35.6253 16.6353 35.8246 16.5659 36.0702 16.5427C35.9961 16.427 35.9497 16.3437 35.8895 16.2696C35.8107 16.1631 35.7226 16.0613 35.6392 15.9595C35.7597 15.89 35.8756 15.8206 35.9961 15.7558C36.1398 15.6817 36.2927 15.6215 36.4642 15.5382C36.8767 15.8854 37.3031 15.7836 37.7295 15.5151C38.1929 15.2188 38.6935 14.9874 39.0689 14.5476C39.4489 14.1032 39.8568 13.7051 39.7178 13.0386C39.8661 12.9923 39.968 12.9599 40.07 12.9321C40.8996 12.6914 40.9506 12.6451 41.3492 11.8443C41.4913 11.5542 41.6844 11.3382 41.9285 11.1962C41.9007 11.1036 41.8683 11.0064 41.8358 10.8953C42.0073 10.8398 42.1834 10.7842 42.3596 10.7287C42.4754 10.3167 42.0861 9.88155 42.5218 9.4742C42.823 9.35847 43.1984 9.21035 43.5692 9.06684C43.5831 8.99278 43.6109 8.9326 43.597 8.88631C43.4765 8.37712 43.5507 8.26602 44.042 8.21973C44.5935 8.16881 44.714 7.95588 44.5008 7.40965C44.7789 7.1458 45.057 6.88194 45.3397 6.61809C45.4324 6.53014 45.5436 6.46533 45.6363 6.37738C45.7197 6.29869 45.8541 6.20611 45.8588 6.11353C45.868 5.92836 45.7012 5.89596 45.539 5.89133C45.4695 5.89133 45.3999 5.86356 45.2702 5.83578C45.386 5.6784 45.4787 5.55804 45.5807 5.4238C45.8634 5.46546 46.109 5.86356 46.3825 5.45158C46.5308 5.57193 46.6559 5.67377 46.8228 5.81264C46.9016 5.71543 47.0453 5.5997 47.0267 5.53953C46.9526 5.32659 46.9572 5.06274 46.6838 4.94701C46.5447 4.88683 46.4381 4.75259 46.3176 4.59058C46.7347 4.56743 46.9526 4.33598 47.1843 4.05361C47.3743 3.82216 47.62 3.55367 48.0232 3.68329C48.0834 3.7018 48.1993 3.54442 48.2781 3.47498C48.102 3.26668 47.949 3.0954 47.7683 2.88246C47.5365 2.86858 47.2492 2.85006 46.9618 2.83155C47.2538 2.59546 47.5504 2.40105 47.912 2.38716C48.2271 2.37327 48.4171 2.27606 48.5284 1.95203C48.6118 1.70206 48.8204 1.49376 48.9687 1.27156C49.1541 1.33637 49.2885 1.38266 49.4229 1.42432C49.8029 1.06789 50.2525 0.81329 50.4286 0.248549C50.7391 0.517033 50.9709 0.540178 51.2768 0.359646C51.5827 0.174485 51.9488 0.0865328 52.301 0.00321034C52.403 -0.0199348 52.6162 0.0865333 52.6486 0.179114C52.746 0.447597 52.9128 0.498517 53.1585 0.48463C54.0112 0.429081 54.674 0.776259 55.1931 1.43358C55.2348 1.48913 55.2904 1.54468 55.3553 1.57245C55.7076 1.72984 56.0552 1.89648 56.4167 2.03072C57.1304 2.28995 57.2417 2.41956 57.2787 3.16021C57.2787 3.21576 57.3019 3.26667 57.3251 3.36388C57.4549 3.3824 57.6078 3.37314 57.7283 3.43332C57.9971 3.56293 58.493 3.44258 58.405 4.00269C58.405 4.02584 58.4374 4.07212 58.4652 4.08138C59.1048 4.35912 59.4802 5.10903 60.282 5.08125C60.2959 5.08125 60.3145 5.09977 60.3145 5.09977C60.5323 5.45158 60.7409 5.78949 60.9633 6.13667C61.3619 6.21074 61.793 6.25703 61.9598 6.7477C61.9691 6.78011 62.0015 6.81714 62.034 6.8264C62.4696 6.99767 62.845 7.19672 63.0351 7.69202C63.1185 7.90959 63.4522 8.02069 63.6561 8.20122C63.8369 8.3586 63.962 8.53451 63.9898 8.80762C64.0176 9.04833 64.1242 9.3631 64.305 9.49272C64.6062 9.71028 64.6711 9.91859 64.5089 10.2241C64.8055 10.4278 65.0836 10.6037 65.3431 10.7981C65.5471 10.9509 65.6676 11.4415 65.5749 11.7008C65.5424 11.7841 65.51 11.8674 65.4683 11.9739C65.7232 12.1776 65.9735 12.3396 66.2933 12.4044C66.9004 12.5294 67.1136 12.7701 67.2063 13.3533C67.4566 13.4181 67.693 13.4783 67.9386 13.5431C67.9247 13.6403 67.9201 13.6912 67.9062 13.7422C67.8923 13.7931 67.8691 13.844 67.8505 13.9042C68.2723 14.1264 68.1333 13.645 68.3835 13.5153C68.8285 13.6866 69.3244 13.9088 69.8435 14.0569C70.0984 14.131 70.3811 14.1171 70.6453 14.1819C71.5027 14.3763 72.2813 14.0847 73.06 13.7746C73.4354 13.6264 73.8201 13.5061 74.1445 13.2561C74.8814 13.2885 75.3217 12.7145 75.8825 12.3951C76.2394 12.1914 76.5685 11.9692 76.8836 11.997C77.1849 11.7563 77.4027 11.5758 77.6252 11.3999C77.6808 11.3536 77.7874 11.3397 77.8106 11.2841C77.9728 10.8768 78.3714 10.8027 78.7004 10.6315C78.9739 10.488 79.1778 10.3259 79.1871 9.96025C79.1917 9.71491 79.2659 9.41865 79.6737 9.58067C79.7201 9.59918 79.8916 9.40014 79.9472 9.27515C80.2392 8.6456 80.8556 8.40026 81.3793 8.04846C81.4674 7.98828 81.6759 8.04383 81.7918 8.10864C82.0282 8.24288 82.2089 8.22899 82.3711 8.01143C82.5148 7.81701 82.7095 7.75683 82.9505 7.74294C83.0988 7.73369 83.3444 7.65499 83.3676 7.56241C83.4649 7.20598 83.7059 7.04396 84.0165 6.8912C83.8079 6.86343 83.604 6.83103 83.3537 6.79862C83.4186 6.57643 83.4278 6.48385 83.7245 6.46996C84.3641 6.43756 85.0685 6.40053 85.5366 5.88207C85.8425 5.54416 86.255 5.30345 86.4497 4.82666C86.5841 4.498 86.9363 4.25266 87.2237 3.99806C87.3905 3.84993 87.562 3.79901 87.4925 3.48424C87.4554 3.31297 87.7196 3.07688 87.854 2.85932C88.2109 3.16021 88.5168 3.41943 88.8227 3.67403C88.7207 4.18785 88.6141 4.7063 88.5168 5.22012C88.5121 5.25716 88.5724 5.30807 88.6002 5.34511C88.9107 5.28493 89.212 5.22475 89.5503 5.15995C89.6245 5.25253 89.7079 5.36825 89.8099 5.50712C89.8933 5.38214 89.9813 5.25253 90.0926 5.09051C90.9778 5.63674 91.8074 6.21536 92.6463 6.91898C92.6788 6.90972 92.79 6.86343 92.9522 6.80325C93.2905 7.24764 93.8745 7.54852 93.9394 8.12252C94.1943 8.38638 94.4214 8.56228 94.579 8.79373C94.7876 9.10388 94.9776 9.41865 95.3113 9.60844C95.3252 9.6177 95.3484 9.62696 95.3576 9.64085C95.5894 9.99728 95.8767 10.2797 96.2846 10.4324C96.3495 10.4556 96.368 10.5898 96.4236 10.6546C96.6507 10.9185 96.8685 11.1916 97.1142 11.4369C97.3876 11.7054 97.6889 11.9507 97.9762 12.2053C98.1663 12.3766 98.3609 12.5479 98.551 12.7145C98.5788 12.7377 98.6251 12.7469 98.6436 12.7701C99.4918 14.0662 100.91 14.8485 101.744 16.1261C102.259 16.9177 103.042 17.487 103.441 18.3619C103.529 18.561 103.839 18.7693 104.057 18.7785C104.794 18.7971 105.276 19.1304 105.586 19.7738C106.064 19.8062 106.537 19.834 107.005 19.8664C107.023 19.908 107.046 19.9543 107.065 19.996C107.153 19.8756 107.241 19.7599 107.329 19.6395C107.464 19.4544 107.63 19.3479 107.871 19.422C107.932 19.1628 108.163 19.2646 108.312 19.1905C108.483 19.1026 108.58 18.8896 108.738 18.7647C108.933 18.6073 109.113 18.436 109.419 18.473C109.577 18.4962 109.753 18.3712 109.952 18.3018C109.818 18.0101 109.855 17.7972 110.17 17.6907C110.346 17.6352 110.518 17.5657 110.689 17.4963C111.111 17.3204 111.514 17.3574 111.996 17.6954C111.843 17.251 112.256 16.9038 111.89 16.5844C112.117 16.2465 112.358 15.9872 112.784 15.9734C112.919 15.9734 113.072 15.8761 113.174 15.7789C113.609 15.3438 114.161 15.1448 114.722 14.9596C114.972 14.8763 115.241 14.8485 115.505 14.8161C115.769 14.7837 116.01 14.8068 116.181 15.0753C116.265 15.2003 116.436 15.2697 116.585 15.3808C116.501 15.4966 116.409 15.6123 116.33 15.7326C116.135 16.0289 116.205 16.1678 116.562 16.1817C116.663 16.1817 116.77 16.1585 116.891 16.14C116.937 15.8715 116.724 15.5197 117.275 15.441C116.719 15.191 116.821 14.3856 116.033 14.5569C116.404 13.9968 116.909 14.1125 117.34 14.0523C117.371 13.8486 117.142 13.594 116.654 13.2885C116.733 13.0895 116.872 12.9784 117.085 12.9228C117.53 12.8071 117.841 12.5155 118.16 12.1868C118.819 11.5202 119.518 10.8861 120.436 10.5667C120.552 10.525 120.677 10.4046 120.728 10.2935C120.844 10.0389 120.974 9.8723 121.289 9.83989C121.419 9.82601 121.53 9.62233 121.669 9.48809C121.766 9.52512 121.901 9.59918 122.04 9.6177C122.285 9.6501 122.489 9.60381 122.638 9.33533C122.823 9.00204 123.073 8.71041 123.268 8.44193C123.764 8.58543 124.172 8.70115 124.603 8.82151C124.77 8.3262 124.051 8.4697 124.111 8.0392C124.626 7.77535 125.089 7.3217 125.785 7.39114C125.859 7.4004 125.942 7.25227 126.03 7.18746C126.197 7.06248 126.262 6.7153 126.591 6.93749C126.61 6.95138 126.698 6.85417 126.763 6.81251C126.971 6.6829 127.184 6.55328 127.421 6.4607C127.55 6.32183 127.546 6.10427 127.829 6.01632C128.13 5.92374 128.38 5.66914 128.649 5.48398C128.793 5.49324 129.02 5.57656 129.112 5.49787C129.344 5.30345 129.511 5.38677 129.696 5.52564C129.854 5.38677 130.007 5.25253 130.137 5.1368C130.429 5.14606 130.368 5.61822 130.772 5.48398C130.804 5.16921 130.846 4.83128 130.878 4.50262C131.555 4.33135 132.236 4.16471 133.015 3.96566C132.992 3.9564 133.089 4.00269 133.214 4.0675C133.302 3.93788 133.39 3.80827 133.488 3.66477C133.631 3.74346 133.761 3.80827 133.9 3.88233C133.946 3.86845 134.002 3.85919 134.048 3.83605C134.183 3.7805 134.312 3.6694 134.447 3.6694C134.697 3.6694 134.947 3.76198 135.198 3.76198C135.443 3.76198 135.694 3.64163 135.93 3.66477C136.444 3.71569 136.75 4.07675 136.936 4.77574L136.945 4.8174ZM0.401384 4.8174C0.507983 5.73395 0.8973 6.40515 1.31442 7.12265C1.62959 6.61346 1.39322 6.09964 1.52299 5.56267C1.63886 5.71543 1.70838 5.80801 1.80107 5.93299C1.89377 5.8219 1.96792 5.72932 2.05598 5.62748C1.62495 5.1368 1.03171 5.07662 0.401384 4.82203V4.8174Z" fill="white"/>
</g>
<defs>
<clipPath id="clip0_13_2">
<rect width="140" height="82" fill="white"/>
</clipPath>
</defs>
</svg>
