<svg width="155" height="16" viewBox="0 0 155 16" fill="none" xmlns="http://www.w3.org/2000/svg">
<g clip-path="url(#clip0_12_12)">
<path d="M0.459991 0.879951H7.43999L12.56 10.14L17.7 0.879951H24.6V15H20.4V4.31995L14.22 15H10.76L4.59999 4.25995V15H0.459991V0.879951ZM34.36 0.879951H39.98L47.94 15H43.04L41.72 12.48H32.62L31.28 15H26.52L34.36 0.879951ZM37.22 3.99995L34.2 9.49995H40.14L37.22 3.99995ZM50.0503 0.879951H56.9703C58.5103 2.75995 60.0503 4.61995 61.5503 6.51995C62.9103 8.23995 64.2503 9.99995 65.5903 11.76L65.5103 5.27995V0.879951H69.5903V15H62.6503C60.9903 12.98 59.3303 10.96 57.7103 8.87995C56.5103 7.33995 55.3303 5.75995 54.1703 4.19995V15H50.0503V0.879951ZM73 0.879951H77.48V15H73V0.879951ZM80.9297 0.879951H96.2497V4.11995H85.2897V6.91995H95.6697V10.14H85.2897V15H80.9297V0.879951ZM98.8194 0.879951H114.599V3.99995H103.119V6.35995H113.979V9.31995H103.119V11.8H114.599V15H98.8194V0.879951ZM117.6 10.36L122.02 10.38C122.02 10.7 122.02 10.96 122.12 11.2C122.28 11.66 122.7 11.84 123.62 11.92C124.52 11.96 125.4 12 126.3 12.02C127.26 12.04 128.22 12 129.2 11.98C129.34 11.98 129.96 12.04 130.4 11.86C130.84 11.7 131.22 11.26 131.22 10.78C131.22 10.66 131.2 10.42 131.02 10.16C130.68 9.67995 130.24 9.69995 129.24 9.55995C127.16 9.51995 125.08 9.49995 123.02 9.37995C122.36 9.33995 121.7 9.27995 121.04 9.23995C120.84 9.19995 120.62 9.17995 120.42 9.13995C120.14 9.09995 119.16 8.93995 118.48 8.19995C118.04 7.71995 117.64 6.85995 117.64 5.41995C117.64 5.31995 117.64 3.77995 118 2.87995C118.14 2.53995 118.34 2.23995 118.58 1.97995C119.4 1.09995 120.48 0.959952 121.66 0.819951C123.2 0.759952 124.74 0.699951 126.28 0.699951C127.98 0.699951 129.68 0.799951 131.38 0.879951L132.16 0.999951C132.46 1.03995 133.44 1.21995 134.2 1.91995C135.18 2.81995 135.18 4.07995 135.14 5.31995L130.86 5.29995C130.6 4.21995 130.4 4.07995 129.26 3.95995C128.22 3.89995 127.16 3.85995 126.12 3.85995C125.3 3.85995 124.5 3.89995 123.68 3.91995C123.14 3.93995 122.64 3.95995 122.3 4.39995C122.24 4.47995 122.06 4.73995 122.06 5.03995C122.06 5.33995 122.22 5.57995 122.3 5.65995C122.68 6.13995 123.16 6.15995 123.7 6.19995L132.18 6.49995C133.34 6.61995 133.78 6.77995 134.28 7.13995C135 7.65995 135.64 8.57995 135.64 10.64C135.64 12.24 135.36 13 134.92 13.62C134.74 13.86 134.58 14.04 134.34 14.22C133.68 14.7 132.82 14.84 131.94 14.98C130.2 15.08 128.48 15.16 126.74 15.16C124.86 15.16 122.98 15.04 121.08 14.94C120.14 14.8 119.08 14.62 118.38 13.86C117.58 13 117.6 11.42 117.6 10.36ZM137.839 0.879951H154.879V4.13995H148.519V15H144.079V4.15995H137.839V0.879951Z" fill="black"/>
</g>
<defs>
<clipPath id="clip0_12_12">
<rect width="155" height="16" fill="white"/>
</clipPath>
</defs>
</svg>
